<?xml version="1.0" standalone="no"?>
<!DOCTYPE svg PUBLIC "-//W3C//DTD SVG 1.1//EN" "http://www.w3.org/Graphics/SVG/1.1/DTD/svg11.dtd" >
<svg xmlns="http://www.w3.org/2000/svg">
<metadata></metadata>
<defs>
<font id="adellebold_italic" horiz-adv-x="1550" >
<font-face units-per-em="2048" ascent="1546" descent="-502" />
<missing-glyph horiz-adv-x="413" />
<glyph horiz-adv-x="2048" />
<glyph horiz-adv-x="2048" />
<glyph unicode="&#xd;" horiz-adv-x="682" />
<glyph unicode=" "  horiz-adv-x="413" />
<glyph unicode="&#x09;" horiz-adv-x="413" />
<glyph unicode="&#xa0;" horiz-adv-x="413" />
<glyph unicode="!" horiz-adv-x="579" d="M96 106q0 188 203 189q154 0 154 -133q0 -186 -199 -187q-158 0 -158 131zM180 393l68 727l51 363h330l-51 -363l-138 -727h-260z" />
<glyph unicode="&#x22;" horiz-adv-x="849" d="M154 915l75 531h277l-76 -531h-276zM563 915l76 531h276l-75 -531h-277z" />
<glyph unicode="#" horiz-adv-x="1243" d="M66 248l73 207h193l67 231h-204l71 209h193l63 217h213l-63 -217h176l63 217h213l-63 -217h207l-70 -209h-197l-67 -231h207l-72 -207h-199l-69 -248h-213l71 248h-178l-69 -248h-213l69 248h-202zM543 455h178l67 231h-176z" />
<glyph unicode="$" horiz-adv-x="1060" d="M39 78l47 336l215 -13l10 -141q2 -37 39 -47q51 -14 142 -14q219 0 219 157q0 29 -14.5 54.5t-30 41t-55.5 34t-58 25.5t-72 26q-74 27 -118 48t-97 61t-79.5 100.5t-26.5 142.5q0 176 106.5 276.5t284.5 126.5l24 156h256l-22 -152q137 -10 278 -57l-47 -348l-217 18 l-6 142q0 31 -24 39q-35 12 -123 12q-100 0 -157.5 -37t-57.5 -107q0 -68 53 -104.5t160 -75.5q16 -6 24 -8q68 -25 113 -48.5t95 -62t75.5 -98t25.5 -135.5q0 -170 -101 -274.5t-275 -137.5l-23 -178h-254l23 168q-226 15 -332 74z" />
<glyph unicode="%" horiz-adv-x="1859" d="M154 821q0 203 104 326t313 123q299 0 299 -291q0 -205 -108.5 -329t-306.5 -124q-158 0 -229.5 81t-71.5 214zM352 -35l955 1307h282l-952 -1307h-285zM389 838q0 -143 96 -144q152 0 152 273q0 133 -94 133q-154 0 -154 -262zM1079 270q0 203 104.5 326t313.5 123 q301 0 301 -291q0 -205 -108.5 -329t-309.5 -124q-158 0 -229.5 81t-71.5 214zM1317 287q0 -143 96 -144q150 0 150 273q0 133 -93 133q-153 0 -153 -262z" />
<glyph unicode="&#x26;" horiz-adv-x="1429" d="M141 332q0 154 89 251t223 130v4q-76 27 -133.5 96.5t-57.5 171.5q0 197 142.5 304.5t379.5 107.5q137 0 265.5 -32t199.5 -79l-51 -317l-221 18l-8 131q-4 31 -25 37q-63 18 -149 19q-229 0 -230 -189q0 -80 51.5 -125t145.5 -45h82l-29 -217q-80 0 -139.5 -9 t-113.5 -30.5t-83.5 -68t-29.5 -111.5q0 -178 239 -178q117 0 172 16q27 8 36 17.5t13 37.5l76 525l37 24h379l-23 -164l-86 -10q-31 -2 -32 -29l-70 -532q-219 -111 -522 -111q-527 1 -527 357z" />
<glyph unicode="'" horiz-adv-x="440" d="M154 915l75 531h277l-76 -531h-276z" />
<glyph unicode="(" horiz-adv-x="741" d="M131 422q0 553 500 1102l209 -138q-205 -254 -294 -483t-89 -504q0 -313 145 -620l-256 -133q-94 152 -154.5 357.5t-60.5 418.5z" />
<glyph unicode=")" horiz-adv-x="741" d="M-27 -217q205 254 294 482.5t89 504.5q0 305 -143 621l254 133q94 -150 154.5 -356.5t60.5 -422.5q0 -549 -498 -1099z" />
<glyph unicode="*" horiz-adv-x="976" d="M207 1178l98 204l131 -45l144 -133l-45 199l20 143h215l-20 -143l-101 -199h-69l-29 -63l51 -39l-88 -203l-102 -117l-160 131l104 115l195 113l-213 -8zM602 1102l57 39l-10 63l182 133l144 45l39 -204l-144 -45l-211 8l162 -115l74 -115l-190 -127l-72 115z" />
<glyph unicode="+" horiz-adv-x="1167" d="M201 543l32 237h273l41 287h246l-41 -287h274l-33 -237h-274l-43 -295h-246l43 295h-272z" />
<glyph unicode="," horiz-adv-x="528" d="M74 70l78 221q131 -2 197.5 -28.5t66.5 -112.5q0 -53 -64 -160l-145 -234l-133 41l88 219q8 18 -8 25z" />
<glyph unicode="-" horiz-adv-x="636" d="M72 465l37 260h555l-37 -260h-555z" />
<glyph unicode="." horiz-adv-x="565" d="M88 113q0 182 201 182q154 0 153 -139q0 -180 -198 -181q-156 1 -156 138z" />
<glyph unicode="/" horiz-adv-x="931" d="M-41 -188l795 1685h297l-795 -1685h-297z" />
<glyph unicode="0" horiz-adv-x="1185" d="M96 428q0 86 13 178q76 604 618 604q446 0 447 -450q0 -82 -13 -168q-41 -305 -183 -461t-429 -156q-453 0 -453 453zM418 422q0 -229 162 -229q113 0 173 90t87 305q16 139 16 176q0 223 -160 223q-115 0 -177 -89t-89 -300q-12 -104 -12 -176z" />
<glyph unicode="1" horiz-adv-x="823" d="M31 0l20 154l174 12q18 2 24.5 9t10.5 32l102 735q6 35 -20 43l-172 37l25 158h503l-135 -973q-4 -25 1 -32t28 -9l160 -14l-23 -152h-698z" />
<glyph unicode="2" horiz-adv-x="1056" d="M35 0l26 190l316 281q229 203 274 256q66 76 66 156q0 106 -129 106q-88 0 -126 -38t-52 -146l-277 26q16 119 63.5 198t121 117t146.5 52t167 14q197 0 291 -82.5t94 -218.5q0 -96 -48 -185t-92.5 -132t-160.5 -143q-25 -23 -37 -33l-256 -219h299q25 0 31 22l51 164 h213l-53 -385h-928z" />
<glyph unicode="3" horiz-adv-x="1056" d="M-27 25l181 174q133 -137 290 -138q227 0 228 201q0 162 -185 162q-72 0 -143 -12l27 204l96 11q123 14 191.5 76.5t68.5 166.5q0 119 -133 119q-88 0 -127 -38t-53 -144l-283 27q45 377 500 376q397 0 397 -317q0 -131 -73.5 -218t-192.5 -124v-8q211 -57 211 -279 q0 -211 -143.5 -322.5t-383.5 -111.5q-154 0 -280.5 54.5t-192.5 140.5z" />
<glyph unicode="4" horiz-adv-x="1124" d="M57 127l29 211l530 879l244 -125l-473 -725h285l47 335l282 37l-53 -372h166l-33 -240h-166l-34 -264h-277l35 264h-582z" />
<glyph unicode="5" horiz-adv-x="1067" d="M-31 23l183 178q125 -137 292 -138q113 0 184.5 62.5t71.5 185.5q0 92 -47 131t-114 39q-111 0 -205 -88l-189 88l144 699h751l-34 -258h-521l-73 -289q113 80 262 80q156 0 245 -93.5t89 -265.5q0 -231 -146.5 -377.5t-408.5 -146.5q-162 0 -287 52.5t-197 140.5z" />
<glyph unicode="6" horiz-adv-x="1130" d="M123 479q0 115 19.5 228.5t67.5 229.5t119.5 204t188.5 144t260 56q229 0 373 -141l-156 -174q-102 88 -225 88q-125 0 -211 -105.5t-106 -260.5q156 84 305 83.5t241.5 -86.5t92.5 -251q0 -254 -147.5 -386.5t-385.5 -132.5q-229 0 -332.5 140.5t-103.5 363.5zM430 449 q0 -248 156 -248q104 0 149 82t45 182q0 145 -135 145q-98 0 -213 -67q-2 -37 -2 -94z" />
<glyph unicode="7" horiz-adv-x="1058" d="M111 707l67 473h987l-37 -232q-207 -199 -366.5 -491.5t-208.5 -593.5h-322q117 625 564 1059h-387q-23 0 -31 -27l-53 -172z" />
<glyph unicode="8" horiz-adv-x="1058" d="M59 281q0 244 250 411q-123 100 -123 258q0 184 135.5 287.5t358.5 103.5q180 0 281.5 -78.5t101.5 -213.5q0 -199 -197 -365q162 -100 162 -287q0 -203 -152.5 -312.5t-400.5 -109.5q-197 0 -306.5 78t-109.5 228zM319 322q0 -66 47.5 -104t137.5 -38q100 0 154.5 48 t54.5 124q0 47 -33 89t-67.5 64.5t-98.5 57.5q-14 8 -22 12q-173 -128 -173 -253zM479 991q0 -45 30 -84t62.5 -62.5t92.5 -56.5q141 121 141 228q0 123 -146 123q-80 0 -130 -41t-50 -107z" />
<glyph unicode="9" horiz-adv-x="1130" d="M53 -10l150 180q127 -111 260 -111q137 0 205.5 90.5t95.5 256.5q-143 -84 -293 -84q-154 0 -249 94t-95 264q0 246 145.5 388t391.5 142q434 0 434 -510q0 -88 -9.5 -174t-33 -189.5t-71.5 -189.5t-115.5 -159.5t-175 -114.5t-240.5 -41q-113 0 -223.5 44t-176.5 114z M440 713q0 -82 31 -122t104 -40q96 0 209 70q6 59 7 110v13q0 243 -154 243q-94 0 -145.5 -79.5t-51.5 -194.5z" />
<glyph unicode=":" horiz-adv-x="565" d="M88 113q0 182 201 182q154 0 153 -139q0 -180 -198 -181q-156 1 -156 138zM207 891q0 182 201 182q154 0 153 -139q0 -180 -199 -180q-155 0 -155 137z" />
<glyph unicode=";" horiz-adv-x="528" d="M74 70l78 221q131 -2 197.5 -28.5t66.5 -112.5q0 -53 -64 -160l-145 -234l-133 41l88 219q8 18 -8 25zM199 891q0 182 200 182q154 0 154 -139q0 -180 -199 -180q-155 0 -155 137z" />
<glyph unicode="&#x3c;" horiz-adv-x="1167" d="M219 453l39 286l836 291l36 -231l-626 -201l573 -201l-100 -225z" />
<glyph unicode="=" horiz-adv-x="1167" d="M186 266l33 240h791l-33 -240h-791zM240 647l32 240h791l-35 -240h-788z" />
<glyph unicode="&#x3e;" horiz-adv-x="1167" d="M160 410l631 200l-570 201l94 219l752 -291l-39 -286l-840 -281z" />
<glyph unicode="?" horiz-adv-x="1081" d="M203 1034l49 355q260 94 459 94q444 0 444 -377q0 -205 -131 -341t-387 -175l-25 -197h-309l51 381q82 6 156 24.5t148.5 54.5t118.5 98.5t44 146.5q0 66 -42 99.5t-113 33.5q-86 0 -140 -14q-31 -8 -39 -41l-30 -123zM242 106q0 188 200 189q156 0 156 -133 q0 -186 -201 -187q-155 0 -155 131z" />
<glyph unicode="@" horiz-adv-x="1722" d="M125 215q0 414 262 681t660 267q293 0 456.5 -147.5t163.5 -411.5q0 -313 -136 -471t-357 -158q-174 0 -205 142q-164 -141 -271 -142q-197 0 -196 250q0 229 153.5 408.5t376.5 179.5q150 0 277 -65l-80 -267q-27 -80 -53 -190q-14 -49 -15 -80q0 -68 74 -68 q98 0 162.5 136.5t64.5 298.5q0 401 -448 401q-166 0 -299 -64.5t-214 -172t-124 -235.5t-43 -263q0 -223 118.5 -337t346.5 -114q186 0 370 64l25 -168q-172 -72 -426 -72q-301 0 -472 152.5t-171 445.5zM713 246q0 -92 67 -92q78 0 191 108l112 377q-31 25 -88 25 q-102 0 -192 -124t-90 -294z" />
<glyph unicode="A" horiz-adv-x="1523" d="M-25 0l23 150l92 22q41 10 55 41l613 1270h356l262 -1276q4 -25 45 -35l88 -22l-22 -150h-629l21 150l168 18l-39 223h-504l-101 -223l156 -18l-22 -150h-562zM596 612h379l-105 559h-14z" />
<glyph unicode="B" horiz-adv-x="1327" d="M37 0l22 150l127 14q23 4 30 11t9 30l150 1069q4 23 -2 31t-27 10l-125 14l21 154h676q209 0 302 -88t93 -232q0 -160 -85 -254t-214 -133v-6q145 -16 218 -95t73 -210q0 -244 -164 -354.5t-445 -110.5h-659zM535 221h139q156 0 234.5 55.5t78.5 200.5q0 178 -223 178 h-170zM623 860h82q66 0 115.5 10.5t95 35t70 74.5t24.5 124q0 92 -56.5 124t-165.5 32h-112z" />
<glyph unicode="C" horiz-adv-x="1372" d="M121 614q0 403 222 649t634 246q127 0 252 -31.5t196 -84.5l-53 -402l-219 19l-6 190q0 37 -27 45q-68 27 -172 27q-229 0 -365.5 -165t-136.5 -470q0 -211 87.5 -319.5t252.5 -108.5q143 0 211 27q23 12 31 38l59 195h216l-54 -381q-195 -113 -518 -113 q-309 0 -459.5 170t-150.5 469z" />
<glyph unicode="D" horiz-adv-x="1513" d="M37 0l22 154l129 14q20 2 26.5 9t10.5 30l150 1069q6 37 -27 41l-127 14l21 152h651q322 0 476.5 -158t154.5 -444q0 -395 -219.5 -638t-649.5 -243h-618zM537 219h114q266 0 410.5 184.5t144.5 468.5q0 205 -98 297.5t-303 92.5h-125z" />
<glyph unicode="E" horiz-adv-x="1269" d="M37 0l20 150l129 14q23 4 30 11t9 30l150 1071q4 23 -1 31t-26 10l-127 14l21 152h1067l-58 -414l-215 10l-6 156q-2 27 -33 27h-317l-55 -404h471l-33 -227h-471l-55 -412h362q29 0 35 23l57 180h215l-57 -422h-1112z" />
<glyph unicode="F" horiz-adv-x="1218" d="M39 0l20 150l127 14q23 4 30 11t9 30l150 1071q4 23 -1 31t-26 10l-127 14l21 152h1061l-58 -414l-217 10l-6 156q-2 27 -33 27h-309l-55 -402h462l-30 -227h-463l-59 -424q-4 -25 1 -32t25 -9l293 -16l-18 -152h-797z" />
<glyph unicode="G" horiz-adv-x="1468" d="M119 614q0 399 223 647t637 248q121 0 246 -30.5t202 -87.5l-51 -387l-221 16l-6 182q0 37 -25 43q-84 27 -182 27q-227 0 -361.5 -173t-134.5 -464q0 -424 361 -424q117 0 180 20q23 6 29 35l39 264h-226l54 185h616l-22 -164l-82 -8q-35 -2 -37 -29l-60 -440 q-219 -98 -536 -99q-334 0 -488.5 174t-154.5 465z" />
<glyph unicode="H" horiz-adv-x="1642" d="M39 0l20 150l129 14q20 2 26.5 10t10.5 31l150 1069q4 23 -2 31t-27 10l-123 14l21 154h635l-21 -154l-137 -16q-23 -4 -29 -10.5t-8 -28.5l-53 -397h549l55 397q4 25 -1 32t-26 9l-125 14l21 154h635l-21 -154l-135 -16q-23 -2 -28 -8.5t-9 -30.5l-149 -1067 q-4 -25 0 -32t26 -9l133 -16l-22 -150h-635l23 149l127 15q20 2 26 10t10 31l64 442h-551l-61 -440q-4 -25 0 -32t24 -9l133 -16l-20 -150h-635z" />
<glyph unicode="I" horiz-adv-x="782" d="M23 0l16 150l149 14q20 2 26.5 9t10.5 32l152 1069q4 23 -2 31t-27 10l-143 14l20 154h676l-22 -154l-156 -16q-23 -2 -28 -8.5t-9 -30.5l-149 -1067q-4 -25 0 -32t24 -9l154 -16l-19 -150h-673z" />
<glyph unicode="J" horiz-adv-x="1024" d="M35 55l51 365l217 -17l2 -145q0 -25 14 -29q33 -12 87 -12q55 0 79.5 26.5t34.5 92.5l131 940q6 37 -28 39l-179 14l21 154h690l-22 -154l-138 -16q-14 -2 -20 -5t-9 -9.5t-5 -22.5l-134 -942q-25 -184 -125 -271.5t-301 -87.5q-115 0 -220 24.5t-146 55.5z" />
<glyph unicode="K" horiz-adv-x="1505" d="M39 0l20 152l127 14q23 2 30 9t9 32l150 1069q6 37 -27 41l-123 14l19 152h635l-19 -152l-139 -16q-23 -4 -29 -10.5t-8 -28.5l-74 -520l551 557l-121 16l21 154h526l-20 -154l-86 -14q-39 -6 -66 -35l-430 -436l313 -633q16 -33 56 -39l121 -20l-21 -152h-418l-14 10 l-72 172l-209 428l-174 -180l-32 -221q-4 -25 0 -32t24 -9l135 -16l-20 -152h-635z" />
<glyph unicode="L" horiz-adv-x="1243" d="M39 0l20 152l127 14q23 4 30 11t9 30l150 1069q4 23 -1 31t-26 10l-123 14l17 152h669l-20 -152l-170 -16q-20 -2 -26.5 -9.5t-10.5 -29.5l-147 -1057h360q29 0 37 23l59 204h219l-61 -446h-1112z" />
<glyph unicode="M" horiz-adv-x="1929" d="M39 0l18 150l129 14q23 4 30 11t9 32l150 1069q6 37 -27 41l-123 14l17 152h503l263 -899h10l491 899h519l-19 -150l-135 -16q-25 -2 -30 -9.5t-9 -33.5l-152 -1069q-6 -35 27 -39l133 -16l-20 -150h-662l21 150l168 14q18 2 25 10t11 31l109 770h-8l-383 -680h-313 l-203 678h-10l-107 -766q-4 -27 0 -33t25 -8l172 -16l-19 -150h-610z" />
<glyph unicode="N" horiz-adv-x="1662" d="M39 0l18 150l129 14q23 4 30 11t9 30l150 1071q4 25 -1 32t-26 9l-123 14l17 152h497l484 -1077l123 868q4 23 -1.5 31t-25.5 10l-125 14l18 154h557l-20 -154l-137 -16q-14 -2 -20.5 -5t-9.5 -10.5t-5 -23.5l-180 -1274h-328l-491 1075l-121 -868q-4 -25 1 -32t25 -9 l133 -16l-18 -150h-559z" />
<glyph unicode="O" d="M121 586q0 406 218 664.5t619 258.5q303 0 449.5 -163.5t146.5 -434.5q0 -438 -220 -687t-613 -249q-309 0 -454.5 161t-145.5 450zM451 635q0 -70 6 -111q39 -297 311 -297q195 0 317.5 147.5t141.5 465.5q0 80 -4 114q-35 303 -301 303q-152 0 -262.5 -94t-159.5 -231 t-49 -297z" />
<glyph unicode="P" horiz-adv-x="1300" d="M37 0l22 152l129 14q23 4 30 11t9 30l148 1067q4 23 -2 31t-27 10l-123 14l19 154h667q231 0 337 -103.5t106 -281.5q0 -276 -165 -413.5t-460 -137.5h-147l-45 -338q-4 -25 0 -32t24 -9l287 -16l-23 -152h-786zM610 766h99q66 0 115.5 11t99 41t77 92.5t27.5 156.5 q0 109 -61.5 151t-169.5 42h-119z" />
<glyph unicode="Q" d="M121 586q0 406 218 664.5t619 258.5q303 0 449.5 -163.5t146.5 -434.5q0 -412 -191.5 -640t-559.5 -263v-4q256 -123 440 -123q68 0 152 13l-9 -226q-92 -12 -165 -12q-117 0 -219.5 29.5t-161 64.5t-128 64.5t-128.5 29.5q-102 0 -236 -88l-104 185q113 78 211 102v4 q-334 162 -334 539zM451 635q0 -70 6 -111q39 -297 311 -297q156 0 263.5 93.5t151.5 232.5t44 311q0 41 -4 90q-35 303 -301 303q-152 0 -262.5 -94t-159.5 -231t-49 -297z" />
<glyph unicode="R" horiz-adv-x="1378" d="M41 0l18 154l129 14q20 2 26.5 9t10.5 32l152 1067q6 37 -27 41l-123 14l17 152h671q221 0 324.5 -101.5t103.5 -261.5q0 -309 -323 -440q39 -20 59.5 -57t34.5 -107l68 -303q8 -37 51 -43l125 -16l-21 -154h-422l-12 10l-112 504q-10 49 -32 70.5t-73 21.5h-96l-55 -395 q-4 -25 0 -32t24 -9l121 -16l-18 -154h-621zM621 819h92q307 0 307 262q0 96 -57.5 137.5t-182.5 41.5h-100z" />
<glyph unicode="S" horiz-adv-x="1204" d="M72 59l55 400h223l15 -193q2 -35 36 -45q66 -16 158 -16q281 0 281 213q0 80 -56.5 122t-171.5 83q-180 63 -245 108q-139 100 -140 291q0 238 170 362.5t434 124.5q209 0 406 -84l-55 -399l-224 18l-4 177q0 37 -26 43q-35 10 -119 10q-113 0 -190.5 -49t-77.5 -140 q0 -33 15 -60.5t32.5 -44.5t59.5 -37.5t65 -29.5l80 -28q63 -23 103 -40.5t94 -51t86 -73.5t54.5 -102.5t22.5 -140.5q0 -250 -174 -376t-449 -126q-131 0 -265 26.5t-193 57.5z" />
<glyph unicode="T" horiz-adv-x="1392" d="M162 1059l57 424h1292l-57 -424h-217l-8 178q-2 14 -7 18.5t-22 4.5h-209l-145 -1053q-4 -23 0 -30t24 -9l222 -18l-21 -150h-803l23 152l207 14q20 2 26 10t11 31l145 1053h-209q-27 0 -33 -23l-57 -178h-219z" />
<glyph unicode="U" horiz-adv-x="1585" d="M209 1331l20 152h635l-20 -152l-137 -16q-23 -2 -28 -8.5t-9 -30.5l-97 -686q-12 -80 -12 -144q0 -115 55.5 -167t180.5 -52q160 0 236.5 83t103.5 278l96 688q4 23 -1 31t-26 10l-125 14l21 152h594l-21 -152l-139 -16q-23 -2 -28 -9.5t-7 -29.5l-104 -746 q-41 -289 -195.5 -422t-429.5 -133q-264 0 -394 107.5t-130 329.5q0 51 10 127l100 737q6 39 -24 41z" />
<glyph unicode="V" horiz-adv-x="1462" d="M147 1333l23 150h627l-23 -150l-166 -18l162 -1016h10l432 1016l-153 18l22 150h549l-22 -150l-88 -22q-43 -12 -60 -51l-542 -1260h-410l-229 1276q-4 25 -43 35z" />
<glyph unicode="W" horiz-adv-x="2070" d="M145 1333l23 150h612l-22 -150l-170 -20l96 -998h10l355 893h307l98 -913h12l344 1018l-161 20l22 150h563l-22 -150l-98 -22q-37 -6 -56 -54l-452 -1257h-408l-88 750h-6l-293 -750h-399l-127 1260q-2 29 -9.5 37t-33.5 14z" />
<glyph unicode="X" d="M10 0l21 150l121 22q33 8 57 39l448 518l-325 547q-14 27 -43 35l-101 22l25 150h643l-22 -150l-158 -18l215 -379l323 379l-149 18l25 150h540l-20 -150l-103 -22q-29 -8 -57 -39l-444 -510l340 -555q20 -31 51 -37l96 -20l-20 -150h-658l23 150l159 18l-225 385 l-321 -385l151 -18l-22 -150h-570z" />
<glyph unicode="Y" horiz-adv-x="1357" d="M147 1333l23 150h618l-22 -150l-160 -18l178 -492h13l311 492l-152 18l23 150h534l-22 -150l-86 -22q-43 -14 -57 -41l-459 -713l-49 -350q-4 -23 0 -30t26 -9l211 -16l-20 -152h-787l19 152l205 14q18 2 24 9t10 32l50 346l-299 723q-8 23 -46 35z" />
<glyph unicode="Z" horiz-adv-x="1347" d="M53 0l29 199l889 1063h-441q-29 0 -34 -23l-60 -188l-223 -11l63 443h1100l-26 -207l-883 -1057h494q29 0 36 23l68 219h213l-61 -461h-1164z" />
<glyph unicode="[" horiz-adv-x="636" d="M57 -293l250 1776h459l-16 -146l-136 -22q-20 -2 -27 -11.5t-12 -29.5l-190 -1356q-6 -39 27 -43l129 -22l-25 -146h-459z" />
<glyph unicode="\" horiz-adv-x="894" d="M223 1497h281l323 -1685h-282z" />
<glyph unicode="]" horiz-adv-x="630" d="M-39 -293l19 146l133 22q33 4 39 41l190 1356q6 39 -27 43l-129 20l25 148h461l-250 -1776h-461z" />
<glyph unicode="^" horiz-adv-x="1247" d="M109 612l507 748h314l303 -748h-293l-205 492l-334 -492h-292z" />
<glyph unicode="_" horiz-adv-x="1024" d="M-51 -371l31 219h1021l-28 -219h-1024z" />
<glyph unicode="`" horiz-adv-x="1024" d="M483 1448l191 160l264 -357l-131 -102z" />
<glyph unicode="a" horiz-adv-x="1239" d="M88 385q0 125 27.5 241.5t85 224t162 172t241.5 64.5q164 0 281 -116l39 96h262q-41 -201 -51 -268l-82 -594q-4 -23 1 -30t25 -9l97 -14l-23 -152h-395l24 166l-10 2q-100 -98 -185 -145.5t-188 -47.5q-311 0 -311 410zM403 410q0 -178 117 -179q104 0 266 162l54 385 q-84 76 -181 76q-72 0 -124 -47t-79.5 -120t-40 -143.5t-12.5 -133.5z" />
<glyph unicode="b" horiz-adv-x="1230" d="M92 0q53 184 70 299l143 1014q2 33 -20 43l-105 35l23 155h428l-92 -641l4 -2q197 184 370 184q293 0 293 -395q0 -115 -23.5 -230.5t-75.5 -230t-151.5 -185.5t-234.5 -71q-172 0 -301 129l-6 -2l-25 -102h-297zM461 295q102 -82 196 -82q78 0 131.5 67.5t74 157.5 t20.5 189q0 200 -106 200h-1q-88 0 -260 -153z" />
<glyph unicode="c" horiz-adv-x="1028" d="M84 422q0 326 175 495.5t450 169.5q221 0 342 -86l-45 -321l-209 10l-6 139q0 23 -15 29q-35 14 -100 14q-115 0 -195 -102t-80 -315q0 -250 203 -250q115 0 270 61l52 -190q-176 -100 -396 -101q-225 0 -335.5 120t-110.5 327z" />
<glyph unicode="d" horiz-adv-x="1245" d="M88 381q0 119 26.5 235.5t84 226t162 177t241.5 67.5q156 0 272 -88l41 316q4 35 -20 41l-102 35l24 155h422l-186 -1341q-4 -23 1 -30t25 -9l97 -14l-21 -152h-397l24 164l-10 4q-100 -98 -184 -145.5t-187 -47.5q-313 0 -313 406zM403 397q0 -166 117 -166 q106 0 266 164l56 389q-82 70 -176 70q-74 0 -128.5 -46t-82 -121t-40 -146.5t-12.5 -143.5z" />
<glyph unicode="e" horiz-adv-x="1036" d="M84 412q0 313 174 494t434 181q166 0 251 -70.5t85 -199.5q0 -104 -51 -182t-145.5 -123t-197 -68.5t-235.5 -37.5q12 -201 203 -201q121 0 297 74l45 -201q-221 -102 -424 -103q-227 0 -331.5 118t-104.5 319zM412 604q338 47 338 184q0 78 -99 78q-86 0 -151 -70.5 t-88 -191.5z" />
<glyph unicode="f" horiz-adv-x="868" d="M82 -434l182 1276q4 20 -14 20h-133l26 205h152l18 131q29 199 133.5 286t280.5 87q94 0 194.5 -32t157.5 -77l-112 -190q-119 74 -207 74q-125 0 -144 -138l-16 -121q-2 -20 14 -20h316l-29 -205h-332l-182 -1296h-305z" />
<glyph unicode="g" horiz-adv-x="1206" d="M74 -344l96 190q37 -27 131 -57.5t188 -30.5q121 0 183.5 54.5t77.5 177.5l24 176l-6 4q-104 -90 -185 -136t-182 -46q-313 0 -313 397q0 123 27.5 239.5t84 224t161 173t241.5 65.5q170 0 283 -116l39 96h264q-43 -195 -53 -274l-115 -826q-57 -424 -500 -424 q-139 0 -265 37t-181 76zM403 408q0 -88 29 -126t88 -38q111 0 266 151l56 381q-82 78 -183 78q-94 0 -155.5 -84t-81 -177t-19.5 -185z" />
<glyph unicode="h" horiz-adv-x="1267" d="M18 0l21 154l90 12q20 4 27.5 11t9.5 30l156 1106q6 35 -19 43l-102 35l22 155h418l-90 -647l6 -4l123 101q35 28 106.5 59.5t145.5 31.5q109 0 173 -65.5t64 -183.5q0 -33 -8 -107l-74 -524q-4 -25 0.5 -32t26.5 -9l100 -14l-20 -152h-438l-4 8l39 221l61 453q7 35 7 62 q0 23 -5 39q-10 38 -53 38q-94 0 -269 -145l-65 -469q-4 -25 1 -32t28 -9l102 -14l-20 -152h-560z" />
<glyph unicode="i" horiz-adv-x="651" d="M127 10l49 277l76 547q6 35 -21 43l-100 34l21 156h436l-121 -860q-4 -25 1 -32t28 -9l98 -14l-21 -152h-442zM272 1384q0 98 55.5 154.5t155.5 56.5q76 0 118 -38.5t42 -112.5q0 -98 -57.5 -155.5t-155.5 -57.5q-76 0 -117 40.5t-41 112.5z" />
<glyph unicode="j" horiz-adv-x="645" d="M-293 -352l105 170q82 -53 170 -54q63 0 97 38t48 141l127 891q2 33 -21 43l-104 34l21 156h436l-162 -1176q-25 -182 -124 -265t-273 -83q-109 0 -198 36t-122 69zM270 1384q0 98 56.5 154.5t154.5 56.5q78 0 120 -38.5t42 -112.5q0 -96 -57.5 -154.5t-155.5 -58.5 q-76 0 -118 40.5t-42 112.5z" />
<glyph unicode="k" horiz-adv-x="1245" d="M18 0l19 154l94 12q20 4 27.5 11t9.5 30l154 1106q6 33 -21 43l-102 35l22 155h436l-120 -870l315 293q78 72 138.5 95t133.5 23q45 0 119 -12l-22 -178h-15q-104 0 -192 -82l-123 -115l178 -499q12 -31 57 -37l91 -14l-23 -150h-385l-6 4l-68 225l-108 295l-129 -123 l-29 -194q-4 -25 0 -32t27 -9l102 -14l-20 -152h-560z" />
<glyph unicode="l" horiz-adv-x="651" d="M123 10l49 277l145 1026q6 35 -20 43l-102 35l22 155h436l-188 -1339q-4 -25 0 -32t27 -9l98 -14l-19 -152h-442z" />
<glyph unicode="m" horiz-adv-x="1800" d="M18 0l21 154l90 12q20 4 27.5 11t9.5 30l86 624q6 35 -19 43l-100 37l23 156h405l-22 -168l6 -2q78 66 114.5 94.5t112.5 62t148 33.5q86 0 138 -48t58 -138l6 -2q66 57 111 91t116.5 65.5t139.5 31.5q111 0 161 -55t54 -166q0 -51 -10 -133l-74 -526q-4 -25 0 -32t27 -9 l100 -14l-21 -152h-444l-4 6l43 242l63 434q7 37 7 64q-1 22 -5 37q-10 34 -49 34q-66 0 -225 -141l-65 -469q-4 -25 0 -32t24 -9l103 -14l-21 -152h-442l-4 8l45 260l59 414q8 38 8 66q0 16 -3 29q-7 36 -48 36q-80 0 -233 -137l-64 -469q-4 -25 0 -32t27 -9l102 -14 l-20 -152h-562z" />
<glyph unicode="n" horiz-adv-x="1269" d="M18 0l21 154l90 12q20 4 27.5 11t9.5 30l86 624q6 35 -19 43l-100 37l23 156h405l-22 -168l6 -2q74 63 119 96t117.5 63.5t148.5 30.5q233 0 241 -243q0 -61 -8 -113l-73 -524q-4 -25 0 -32t24 -9l103 -14l-21 -152h-442l-4 6l45 250l59 426q6 33 6 60q0 24 -5 42 q-11 39 -54 39q-98 0 -266 -147l-64 -469q-4 -25 0 -32t27 -9l102 -14l-20 -152h-562z" />
<glyph unicode="o" horiz-adv-x="1183" d="M84 416q0 303 164 487t457 184q242 0 349 -118.5t107 -315.5q0 -309 -156.5 -493.5t-453.5 -184.5q-233 0 -350 118t-117 323zM399 416q0 -225 176 -226q117 0 191 111t74 348q0 217 -170 217q-117 0 -194 -107t-77 -343z" />
<glyph unicode="p" horiz-adv-x="1236" d="M55 -426l60 342l127 915q6 35 -19 43l-100 37l22 156h410l-25 -164l7 -2q201 186 376 186q299 0 299 -409q0 -117 -24.5 -230.5t-76.5 -224t-153.5 -179.5t-236.5 -69q-61 0 -117.5 17.5t-86.5 35t-79 52.5l-45 -307q-2 -18 4 -24.5t25 -8.5l207 -21l-23 -153h-547z M469 293q94 -80 195 -80q78 0 132 67.5t74.5 157.5t20.5 189q0 200 -106 200h-1q-88 0 -260 -153z" />
<glyph unicode="q" horiz-adv-x="1208" d="M90 385q0 121 27.5 239.5t84 225t158 172t232.5 65.5q166 0 295 -116l39 96h262q-37 -170 -51 -274l-142 -1018q-4 -25 1 -32t26 -9l96 -13l-20 -155h-613l23 155l174 17q39 2 45 37l55 391l-8 4q-72 -61 -115 -94t-120.5 -67t-153.5 -34q-295 0 -295 410zM406 408 q0 -176 116 -177q106 0 266 164l54 381q-82 78 -180 78q-94 0 -156 -84t-81 -177t-19 -185z" />
<glyph unicode="r" horiz-adv-x="962" d="M18 0l21 154l94 12q20 2 26.5 10t10.5 31l86 624q4 35 -20 43l-103 37l23 156h405l-26 -184l6 -4q144 208 323 208h2q94 0 158 -18l-51 -373l-240 9l-6 106q-2 25 -22 25q-57 0 -160 -107l-72 -520q-4 -25 1 -32t28 -9l194 -16l-22 -152h-656z" />
<glyph unicode="s" horiz-adv-x="978" d="M45 47l39 297l209 -12l6 -119q0 -25 23 -33q55 -18 145 -18q84 0 130 29.5t46 82.5q0 39 -28.5 66t-57.5 37t-106 33q-70 20 -113 38.5t-94 54.5t-76 92t-25 132q0 178 133.5 269t337.5 91q221 0 363 -59l-41 -297l-213 12l-4 107q0 27 -25 33q-41 10 -114 10 q-154 0 -154 -98q0 -45 38 -69t124 -52q66 -23 93.5 -33t84.5 -40t82.5 -58.5t49.5 -79.5t24 -113q0 -188 -137.5 -281.5t-348.5 -93.5q-131 0 -245.5 24.5t-145.5 47.5z" />
<glyph unicode="t" horiz-adv-x="864" d="M96 862l27 189q131 14 203.5 87.5t111.5 239.5h191l-41 -291q-2 -20 14 -20h283l-29 -205h-299l-68 -489q-6 -41 -6 -66q0 -55 27 -78.5t92 -23.5q76 0 164 33l37 -183q-168 -80 -342 -80q-154 0 -222.5 56.5t-68.5 183.5q0 41 6 90l74 537q4 20 -12 20h-142z" />
<glyph unicode="u" horiz-adv-x="1275" d="M137 901l25 166h399l14 -14l-90 -652q-8 -70 -8 -88q0 -39 14.5 -56t51.5 -17q94 0 258 145l63 463q4 25 0 31t-26 10l-66 10l27 168h387l14 -16l-121 -842q-6 -39 23 -43l102 -14l-20 -152h-406l21 164l-6 2q-6 -4 -34 -28.5t-39 -33t-40 -31t-46 -31.5l-47 -25 q-30 -15 -54.5 -22t-57.5 -13.5t-63 -6.5q-129 0 -186.5 63.5t-57.5 192.5q0 61 8 117l68 496q4 27 0 34t-27 9z" />
<glyph unicode="v" horiz-adv-x="1212" d="M86 915l20 152h392l18 -18l35 -234l90 -516h6l295 600l-133 19l22 149h402l24 -63l-514 -1004h-354l-184 862q-4 18 -11.5 24.5t-25.5 10.5z" />
<glyph unicode="w" horiz-adv-x="1753" d="M84 915l27 152h378l17 -18l14 -187l64 -553h6l270 740h322l90 -748h6l252 602l-113 12l25 152h340l22 -59l-434 -1008h-340l-84 686h-6l-242 -686h-366l-129 862q-4 29 -35 35z" />
<glyph unicode="x" horiz-adv-x="1208" d="M0 0l16 147l90 17q31 4 58 35l301 329l-207 332q-16 29 -41 35l-80 18l25 154h325l21 -16l96 -185l90 -151l178 186l-100 14l27 152h465l-21 -152l-90 -20q-25 -4 -57 -39l-293 -295l223 -358q20 -33 45 -37l105 -16l-25 -150h-352l-23 18l-92 170l-111 189l-186 -209 l109 -18l-17 -150h-479z" />
<glyph unicode="y" horiz-adv-x="1163" d="M-113 -354l105 174q98 -59 186 -60q109 0 193 144l57 102l-229 856q-8 27 -37 35l-80 18l24 152h361l20 -23l56 -264l92 -428h10l260 545l-125 18l23 152h379l28 -63l-594 -1170q-82 -154 -175 -222.5t-251 -68.5q-100 0 -183 34t-120 69z" />
<glyph unicode="z" horiz-adv-x="1052" d="M43 0l25 172l622 702h-280q-20 0 -31 -24l-39 -117l-207 -8l47 342h889l-25 -176l-612 -701h295q23 0 31 27l45 141l211 9l-51 -367h-920z" />
<glyph unicode="{" horiz-adv-x="675" d="M90 510l25 162q70 4 106.5 29.5t52.5 91.5q23 93 23 240q0 65 -4 141q-1 12 -1 24q0 159 103 223q107 68 350 68h15l12 -164q-106 -14 -135 -44t-31 -136q-1 -42 -1 -97v-58q1 -91 1 -107q-6 -129 -47 -189.5t-125 -103.5q102 -57 103 -180q0 -78 -44 -227.5t-44 -211.5 q0 -51 26.5 -72.5t99.5 -39.5l-43 -164q-225 4 -315 57t-90 189q0 76 44 227t44 213q0 72 -28.5 98.5t-96.5 30.5z" />
<glyph unicode="|" horiz-adv-x="583" d="M72 -293l250 1776h280l-250 -1776h-280z" />
<glyph unicode="}" horiz-adv-x="696" d="M10 -141q106 14 135 43.5t31 136.5q1 42 1 97v58q-1 91 -1 107q6 129 47 189.5t125 103.5q-102 57 -102 180q0 78 44 227.5t44 210.5q0 51 -26.5 73t-100.5 40l43 164q225 -4 315 -57.5t90 -188.5q0 -76 -44 -227.5t-44 -212.5q0 -72 29 -98.5t96 -30.5l-24 -162 q-70 -4 -107 -29.5t-53 -91.5q-23 -93 -23 -241q0 -65 4 -140q1 -12 1 -24q0 -159 -103 -224q-107 -68 -350 -67h-14z" />
<glyph unicode="~" horiz-adv-x="1073" d="M109 664q47 121 125.5 196.5t175.5 75.5q82 0 225 -47t205 -47q49 0 74.5 21.5t54.5 78.5l151 -59q-47 -150 -111.5 -219.5t-162.5 -69.5q-78 0 -229.5 47t-208.5 47q-51 0 -85 -20.5t-75 -77.5z" />
<glyph unicode="&#xa1;" horiz-adv-x="579" d="M49 -420l51 363l138 727h260l-68 -727l-51 -363h-330zM225 901q0 186 199 186q158 0 158 -131q0 -188 -203 -188q-154 0 -154 133z" />
<glyph unicode="&#xa2;" horiz-adv-x="1062" d="M115 487q0 250 116.5 407t327.5 196l33 215h256l-33 -211q154 -18 256 -76l-45 -307l-205 10l-4 129q0 20 -18 27q-47 14 -105 14q-119 0 -186.5 -98.5t-67.5 -292.5q0 -115 42 -168t130 -53q49 0 103 12q20 4 26 26l43 134l209 8l-41 -307q-115 -63 -280 -80l-27 -209 h-254l29 217q-305 63 -305 407z" />
<glyph unicode="&#xa3;" horiz-adv-x="1130" d="M61 184q100 55 140.5 122t60.5 218l6 47h-147l29 226h141l16 108q31 207 140.5 321.5t353.5 114.5q242 0 381 -133l-150 -176q-100 84 -225 84q-98 0 -141 -53t-58 -158l-16 -108h293l-31 -226h-287q-27 -244 -178 -372h408q23 0 28 24l52 162h213l-52 -385h-968z" />
<glyph unicode="&#xa4;" horiz-adv-x="1167" d="M6 158l180 182q-49 96 -49 231q0 121 53 215l-82 84l-96 97l168 170l168 -170q106 70 258 69q145 0 252 -65l164 164l162 -166l-172 -172q49 -113 49 -217q0 -125 -60 -240l181 -180l-170 -166l-178 176q-106 -61 -240 -61q-150 0 -250 59l-78 -78l-96 -96zM393 571.5 q0 -106.5 52.5 -174t156.5 -67.5q96 0 150.5 68.5t54.5 172.5q0 113 -53.5 175.5t-155.5 62.5q-100 0 -152.5 -65.5t-52.5 -172z" />
<glyph unicode="&#xa5;" horiz-adv-x="1230" d="M102 1149l23 154h582l-21 -154l-141 -19l153 -311h11l243 311l-108 19l20 154h490l-23 -154l-88 -19q-25 -6 -65 -59l-312 -391h207l-31 -240h-262l-30 -227q-4 -23 0 -30t26 -9l211 -16l-22 -158h-789l21 158l200 16q16 0 25.5 5t12.5 12.5t5 23.5l29 225h-242l29 240 h190l-219 412q-16 27 -43 34z" />
<glyph unicode="&#xa6;" horiz-adv-x="583" d="M72 -293l112 795h281l-113 -795h-280zM225 797l97 686h280l-96 -686h-281z" />
<glyph unicode="&#xa7;" horiz-adv-x="1165" d="M53 -215l39 278l213 -12l4 -117q0 -33 33 -40q47 -14 139 -15q182 0 183 123q0 57 -51.5 84t-155.5 53l-27 6q-63 16 -105 33t-89.5 47.5t-71 80.5t-23.5 118q0 180 191 315q-88 70 -88 203q0 176 136 265t345 89q233 0 385 -61l-43 -297l-211 12l-4 111q0 29 -29 37 q-45 12 -121 12q-82 0 -128 -34t-46 -85q0 -74 195 -125q14 -4 20 -6q68 -18 111 -34.5t94 -50.5t77 -86t26 -126q0 -182 -181 -303q82 -86 82 -186q0 -129 -75.5 -214t-184 -118t-246.5 -33q-125 0 -244.5 26.5t-148.5 49.5zM399 512q0 -43 32 -67.5t99 -45.5l160 -49 q92 63 92 144q0 78 -137 116l-149 41q-97 -61 -97 -139z" />
<glyph unicode="&#xa8;" horiz-adv-x="1024" d="M342 1348q0 72 48 114.5t120 42.5q61 0 94 -33.5t33 -91.5q0 -72 -47 -115.5t-119 -43.5q-59 0 -94 35t-35 92zM768 1348q0 72 48 114.5t120 42.5q61 0 94 -33.5t33 -91.5q0 -72 -46 -115.5t-120 -43.5q-59 0 -94 35t-35 92z" />
<glyph unicode="&#xa9;" horiz-adv-x="1576" d="M141 625q0 313 197 498.5t493 185.5q317 0 501 -177.5t184 -478.5q0 -307 -190.5 -496.5t-498.5 -189.5q-328 0 -507 183.5t-179 474.5zM307 627q0 -240 139.5 -376t384.5 -136q242 0 382.5 141t140.5 385q0 248 -144.5 384t-378.5 136q-231 0 -377.5 -142t-146.5 -392z M467 645q0 180 100.5 288.5t290.5 108.5q121 0 229 -41v-227h-110l-19 100q-2 18 -16 23q-39 14 -94 14q-197 0 -197 -270q0 -266 209 -266q49 0 76 8q16 4 22 27l27 102h100v-217q-82 -49 -233 -49q-199 0 -292 107.5t-93 291.5z" />
<glyph unicode="&#xaa;" horiz-adv-x="923" d="M152 825q0 111 31.5 211.5t115.5 177t207 76.5q113 0 192 -76l27 62h203q-31 -147 -35 -180l-55 -375q-4 -14 0 -18.5t18 -6.5l66 -10l-17 -111h-293l15 103l-9 4q-70 -63 -126 -93t-125 -30q-215 0 -215 266zM399 850q0 -100 66 -100q68 0 162 90l37 237q-53 41 -107 41 q-57 0 -96 -52t-50.5 -107.5t-11.5 -108.5z" />
<glyph unicode="&#xab;" horiz-adv-x="954" d="M100 526l226 310h252l-205 -287q-16 -18 -8 -39l114 -299h-248zM485 526l226 310h252l-205 -287q-16 -18 -8 -39l114 -299h-248z" />
<glyph unicode="&#xac;" horiz-adv-x="1167" d="M223 545l33 239h793l-62 -432h-227l28 193h-565z" />
<glyph unicode="&#xad;" horiz-adv-x="636" d="M72 465l37 260h555l-37 -260h-555z" />
<glyph unicode="&#xae;" horiz-adv-x="927" d="M178 969q0 172 109.5 277.5t271.5 105.5q176 0 278.5 -100.5t102.5 -268.5q0 -170 -106.5 -275.5t-276.5 -105.5q-180 0 -279.5 102.5t-99.5 264.5zM279 971q0 -129 75.5 -203t204.5 -74q131 0 207 76t76 207q0 135 -79 209t-204 74q-121 0 -200.5 -78t-79.5 -211z M391 786v52l29 6q10 2 10 14v250q0 10 -10 12l-29 4v54h180q143 0 144 -111q0 -80 -72 -104q20 -6 35 -39l31 -68q4 -10 16 -12l31 -6v-52h-123l-47 117q-8 20 -15.5 27.5t-23.5 7.5h-23v-82q0 -12 11 -14l40 -4v-52h-184zM524 1006h27q68 0 67 55q0 47 -59 47h-35v-102z " />
<glyph unicode="&#xaf;" horiz-adv-x="1024" d="M365 1227l28 205h649l-28 -205h-649z" />
<glyph unicode="&#xb0;" horiz-adv-x="585" d="M172 1335q0 121 79 192.5t193 71.5q92 0 148.5 -53t56.5 -145q0 -117 -76.5 -192.5t-193.5 -75.5q-92 0 -149.5 56t-57.5 146zM315 1350q0 -39 21.5 -62.5t60.5 -23.5q47 0 80 34.5t33 83.5q0 39 -22.5 62.5t-61.5 23.5q-45 0 -78 -33.5t-33 -84.5z" />
<glyph unicode="&#xb1;" horiz-adv-x="1167" d="M156 0l32 238h793l-33 -238h-792zM231 543l33 237h273l41 287h245l-41 -287h275l-33 -237h-274l-37 -264h-246l37 264h-273z" />
<glyph unicode="&#xb2;" horiz-adv-x="790" d="M90 717l23 155l313 302q98 96 138 148t40 97q0 55 -67 56q-45 0 -68 -26t-33 -87l-254 22q25 156 128.5 212.5t264.5 56.5q147 0 224.5 -58.5t77.5 -162.5q0 -53 -26 -105.5t-51.5 -82.5t-84.5 -91l-281 -274h174q10 0 21 18l26 90h191l-41 -270h-715z" />
<glyph unicode="&#xb3;" horiz-adv-x="813" d="M86 836l152 145q84 -88 202 -88q61 0 98 30.5t37 84.5q0 96 -102 96q-43 0 -102 -10l24 168l66 6q158 16 157 137q0 66 -67 65q-49 0 -68.5 -22.5t-27.5 -85.5l-260 20q31 270 380 271q309 0 310 -209q0 -98 -56.5 -159.5t-130.5 -82.5l-2 -6q68 -14 108 -61.5t40 -120.5 q0 -154 -114 -234t-290 -80q-113 0 -208 37.5t-146 98.5z" />
<glyph unicode="&#xb4;" horiz-adv-x="1024" d="M444 1268l336 334l158 -175l-381 -278z" />
<glyph unicode="&#xb5;" horiz-adv-x="1320" d="M98 -360l201 1427h309l-96 -678q-6 -51 -6 -88t24.5 -58.5t77.5 -21.5q106 0 213 90l107 756h309l-121 -860q-6 -35 23 -37l100 -14l-20 -156h-396l19 123l-8 4q-174 -135 -306 -135q-45 0 -82 12l-28 -364h-320z" />
<glyph unicode="&#xb6;" horiz-adv-x="1345" d="M154 629q0 322 191.5 507t528.5 185h560l-23 -156l-139 -16q-23 -2 -29 -9t-10 -30l-150 -1061q-57 -414 -469 -414q-260 0 -430 115l95 180q41 -27 130 -57.5t183 -30.5q217 0 252 236l151 1055h-131l-145 -1018h-82q-225 0 -354 137t-129 377z" />
<glyph unicode="&#xb7;" horiz-adv-x="487" d="M143 641q0 182 201 182q154 0 154 -139q0 -180 -199 -180q-156 0 -156 137z" />
<glyph unicode="&#xb8;" horiz-adv-x="1024" d="M242 -508l32 141q25 -8 72 -8q55 0 94 23.5t39 75.5q0 78 -125 81l70 256l143 -16l-37 -137q143 -41 144 -178q0 -119 -90 -186.5t-215 -67.5q-94 0 -127 16z" />
<glyph unicode="&#xb9;" horiz-adv-x="634" d="M121 717l18 129l107 8q25 2 28 27l82 567q4 25 -12 27l-113 26l23 131h408l-113 -751q-4 -16 -1 -20.5t19 -6.5l107 -10l-19 -127h-534z" />
<glyph unicode="&#xba;" horiz-adv-x="849" d="M141 852q0 18 4 63q18 172 133 273.5t304 101.5q166 0 242.5 -82t76.5 -211q0 -43 -2 -63q-23 -176 -130 -275.5t-302 -99.5q-326 0 -326 293zM387 852q0 -131 105 -131q63 0 101 47t54 162q6 41 6 71q0 129 -100 129q-133 0 -162 -202q-4 -29 -4 -76z" />
<glyph unicode="&#xbb;" horiz-adv-x="954" d="M68 211l200 299q12 20 4 39l-122 287h249l138 -312l-220 -313h-249zM453 211l200 299q12 20 4 39l-122 287h249l138 -312l-220 -313h-249z" />
<glyph unicode="&#xbc;" horiz-adv-x="2007" d="M164 575l18 130l107 8q25 2 28 26l82 568q4 25 -12 26l-113 27l23 131h408l-113 -752q-4 -16 -1 -20t19 -6l107 -11l-19 -127h-534zM420 -35l946 1518h283l-944 -1518h-285zM1104 176l24 168l457 569h287l-82 -561h111l-27 -174h-111l-24 -178h-248l25 176h-412z M1337 352h203l45 307h-6z" />
<glyph unicode="&#xbd;" horiz-adv-x="2007" d="M160 575l18 130l107 8q25 2 28 26l82 568q4 25 -12 26l-113 27l23 131h407l-112 -752q-4 -16 -1 -20t19 -6l107 -11l-19 -127h-534zM383 -35l946 1518h283l-944 -1518h-285zM1149 0l22 156l314 301q98 96 138 148t40 97q0 55 -68 56q-45 0 -67.5 -25.5t-32.5 -87.5 l-254 23q25 156 128.5 212t264.5 56q147 0 224 -58.5t77 -162.5q0 -53 -25.5 -105.5t-51 -82t-84.5 -91.5l-281 -274h174q12 0 21 18l26 90h191l-41 -270h-715z" />
<glyph unicode="&#xbe;" horiz-adv-x="2007" d="M123 694l151 146q84 -88 203 -88q61 0 98 30.5t37 83.5q0 96 -102 97q-43 0 -102 -11l24 168l66 6q158 16 157 138q0 66 -67 65q-49 0 -68.5 -22.5t-27.5 -85.5l-261 20q31 270 381 270q309 0 310 -208q0 -98 -56.5 -160t-130.5 -82l-2 -6q68 -14 108 -61.5t40 -121.5 q0 -154 -114 -233.5t-290 -79.5q-113 0 -208 37t-146 98zM475 -35l946 1518h283l-944 -1518h-285zM1124 176l25 168l457 569h286l-82 -561h111l-27 -174h-110l-25 -178h-248l25 176h-412zM1358 352h203l45 307h-7z" />
<glyph unicode="&#xbf;" horiz-adv-x="1097" d="M55 -43q0 205 131 341t387 175l25 197h309l-51 -381q-82 -6 -155.5 -24.5t-148.5 -54.5t-119 -98.5t-44 -146.5q0 -66 42 -99.5t114 -33.5q86 0 139 14q31 8 39 41l31 123l254 19l-50 -355q-260 -94 -458 -94q-445 0 -445 377zM612 901q0 186 201 186q156 0 156 -131 q0 -188 -201 -188q-156 0 -156 133z" />
<glyph unicode="&#xc0;" horiz-adv-x="1523" d="M-25 0l23 150l92 22q41 10 55 41l613 1270h356l262 -1276q4 -25 45 -35l88 -22l-22 -150h-629l21 150l168 18l-39 223h-504l-101 -223l156 -18l-22 -150h-562zM596 612h379l-105 559h-14zM688 1753l133 203l389 -250l-92 -137z" />
<glyph unicode="&#xc1;" horiz-adv-x="1523" d="M-25 0l23 150l92 22q41 10 55 41l613 1270h356l262 -1276q4 -25 45 -35l88 -22l-22 -150h-629l21 150l168 18l-39 223h-504l-101 -223l156 -18l-22 -150h-562zM596 612h379l-105 559h-14zM696 1716l434 240l93 -211l-461 -174z" />
<glyph unicode="&#xc2;" horiz-adv-x="1523" d="M-25 0l23 150l92 22q41 10 55 41l613 1270h356l262 -1276q4 -25 45 -35l88 -22l-22 -150h-629l21 150l168 18l-39 223h-504l-101 -223l156 -18l-22 -150h-562zM594 1686l280 229h213l216 -229l-125 -115l-220 166l-264 -166zM596 612h379l-105 559h-14z" />
<glyph unicode="&#xc3;" horiz-adv-x="1523" d="M-25 0l23 150l92 22q41 10 55 41l613 1270h356l262 -1276q4 -25 45 -35l88 -22l-22 -150h-629l21 150l168 18l-39 223h-504l-101 -223l156 -18l-22 -150h-562zM565 1675l74 107q63 96 154 96q66 0 198 -35q106 -29 125 -28q20 0 31 12l55 59l125 -80l-57 -84 q-47 -68 -82 -95.5t-80 -27.5q-55 0 -164 29l-153 41q-20 6 -35 -8l-72 -66zM596 612h379l-105 559h-14z" />
<glyph unicode="&#xc4;" horiz-adv-x="1523" d="M-25 0l23 150l92 22q41 10 55 41l613 1270h356l262 -1276q4 -25 45 -35l88 -22l-22 -150h-629l21 150l168 18l-39 223h-504l-101 -223l156 -18l-22 -150h-562zM596 612h379l-105 559h-14zM598 1726q0 72 48 115t120 43q61 0 94 -33.5t33 -91.5q0 -72 -47 -116t-119 -44 q-59 0 -94 35t-35 92zM1024 1726q0 72 48 115t120 43q61 0 94 -33.5t33 -91.5q0 -72 -46 -116t-120 -44q-59 0 -94 35t-35 92z" />
<glyph unicode="&#xc5;" horiz-adv-x="1523" d="M-25 0l23 150l92 22q41 10 55 41l615 1276q-33 43 -33 108q0 102 68.5 165t181.5 63q82 0 137 -44t55 -128q0 -96 -59 -162l266 -1284q4 -25 45 -35l88 -22l-22 -150h-629l21 150l168 18l-39 223h-504l-101 -223l156 -18l-22 -150h-562zM596 612h379l-105 559h-14z M866 1602q0 -61 74 -62q92 0 92 102q0 61 -71 62q-95 0 -95 -102z" />
<glyph unicode="&#xc6;" horiz-adv-x="2048" d="M-25 0l23 150l88 22q43 10 59 39l680 1098l-149 20l20 154h1393l-59 -414l-220 10l-6 156q0 27 -32 27h-322l-57 -416h477l-33 -228h-475l-57 -399h366q29 0 37 23l57 180h220l-60 -422h-1114l20 150l136 16q18 2 24 8t8 27l60 417h-393l-275 -450l156 -18l-21 -150h-551 zM791 846h301l57 416h-100z" />
<glyph unicode="&#xc7;" horiz-adv-x="1372" d="M121 614q0 403 222 649t634 246q127 0 252 -31.5t196 -84.5l-53 -402l-219 19l-6 190q0 37 -27 45q-68 27 -172 27q-229 0 -365.5 -165t-136.5 -470q0 -211 87.5 -319.5t252.5 -108.5q143 0 211 27q23 12 31 38l59 195h216l-54 -381q-166 -96 -452 -111l-19 -69 q143 -41 144 -178q0 -119 -90.5 -186.5t-215.5 -67.5q-94 0 -127 16l33 141q25 -8 72 -8q55 0 94 23.5t39 75.5q0 78 -125 81l47 175q-268 23 -398 189t-130 445z" />
<glyph unicode="&#xc8;" horiz-adv-x="1269" d="M37 0l20 150l129 14q23 4 30 11t9 30l150 1071q4 23 -1 31t-26 10l-127 14l21 152h1067l-58 -414l-215 10l-6 156q-2 27 -33 27h-317l-55 -404h471l-33 -227h-471l-55 -412h362q29 0 35 23l57 180h215l-57 -422h-1112zM565 1753l133 203l389 -250l-92 -137z" />
<glyph unicode="&#xc9;" horiz-adv-x="1269" d="M37 0l20 150l129 14q23 4 30 11t9 30l150 1071q4 23 -1 31t-26 10l-127 14l21 152h1067l-58 -414l-215 10l-6 156q-2 27 -33 27h-317l-55 -404h471l-33 -227h-471l-55 -412h362q29 0 35 23l57 180h215l-57 -422h-1112zM573 1716l435 240l92 -211l-461 -174z" />
<glyph unicode="&#xca;" horiz-adv-x="1269" d="M37 0l20 150l129 14q23 4 30 11t9 30l150 1071q4 23 -1 31t-26 10l-127 14l21 152h1067l-58 -414l-215 10l-6 156q-2 27 -33 27h-317l-55 -404h471l-33 -227h-471l-55 -412h362q29 0 35 23l57 180h215l-57 -422h-1112zM471 1686l281 229h213l215 -229l-125 -115l-219 166 l-265 -166z" />
<glyph unicode="&#xcb;" horiz-adv-x="1269" d="M37 0l20 150l129 14q23 4 30 11t9 30l150 1071q4 23 -1 31t-26 10l-127 14l21 152h1067l-58 -414l-215 10l-6 156q-2 27 -33 27h-317l-55 -404h471l-33 -227h-471l-55 -412h362q29 0 35 23l57 180h215l-57 -422h-1112zM475 1726q0 72 48 115t120 43q61 0 94 -33.5 t33 -91.5q0 -72 -47 -116t-119 -44q-59 0 -94 35t-35 92zM901 1726q0 72 48 115t120 43q61 0 94 -33.5t33 -91.5q0 -72 -46 -116t-120 -44q-59 0 -94 35t-35 92z" />
<glyph unicode="&#xcc;" horiz-adv-x="782" d="M23 0l16 150l149 14q20 2 26.5 9t10.5 32l152 1069q4 23 -2 31t-27 10l-143 14l20 154h676l-22 -154l-156 -16q-23 -2 -28 -8.5t-9 -30.5l-149 -1067q-4 -25 0 -32t24 -9l154 -16l-19 -150h-673zM303 1753l133 203l389 -250l-92 -137z" />
<glyph unicode="&#xcd;" horiz-adv-x="782" d="M23 0l16 150l149 14q20 2 26.5 9t10.5 32l152 1069q4 23 -2 31t-27 10l-143 14l20 154h676l-22 -154l-156 -16q-23 -2 -28 -8.5t-9 -30.5l-149 -1067q-4 -25 0 -32t24 -9l154 -16l-19 -150h-673zM328 1716l434 240l92 -211l-461 -174z" />
<glyph unicode="&#xce;" horiz-adv-x="782" d="M23 0l16 150l149 14q20 2 26.5 9t10.5 32l152 1069q4 23 -2 31t-27 10l-143 14l20 154h676l-22 -154l-156 -16q-23 -2 -28 -8.5t-9 -30.5l-149 -1067q-4 -25 0 -32t24 -9l154 -16l-19 -150h-673zM225 1686l281 229h213l215 -229l-125 -115l-219 166l-264 -166z" />
<glyph unicode="&#xcf;" horiz-adv-x="782" d="M23 0l16 150l149 14q20 2 26.5 9t10.5 32l152 1069q4 23 -2 31t-27 10l-143 14l20 154h676l-22 -154l-156 -16q-23 -2 -28 -8.5t-9 -30.5l-149 -1067q-4 -25 0 -32t24 -9l154 -16l-19 -150h-673zM229 1726q0 72 48.5 115t119.5 43q61 0 94 -33.5t33 -91.5q0 -72 -47 -116 t-119 -44q-59 0 -94 35t-35 92zM655 1726q0 72 48.5 115t119.5 43q61 0 94 -33.5t33 -91.5q0 -72 -46 -116t-120 -44q-59 0 -94 35t-35 92z" />
<glyph unicode="&#xd0;" horiz-adv-x="1525" d="M49 0l23 154l129 14q20 2 26 9t11 30l59 428h-164l31 219h164l59 422q6 37 -27 41l-127 14l21 152h651q322 0 476.5 -158t154.5 -444q0 -395 -219 -638t-649 -243h-619zM549 219h115q266 0 410.5 184.5t144.5 468.5q0 205 -98.5 297.5t-303.5 92.5h-125l-57 -408h289 l-29 -219h-289z" />
<glyph unicode="&#xd1;" horiz-adv-x="1662" d="M39 0l18 150l129 14q23 4 30 11t9 30l150 1071q4 25 -1 32t-26 9l-123 14l17 152h497l484 -1077l123 868q4 23 -1.5 31t-25.5 10l-125 14l18 154h557l-20 -154l-137 -16q-14 -2 -20.5 -5t-9.5 -10.5t-5 -23.5l-180 -1274h-328l-491 1075l-121 -868q-4 -25 1 -32t25 -9 l133 -16l-18 -150h-559zM623 1675l73 107q63 96 154 96q66 0 199 -35q106 -29 125 -28q20 0 30 12l56 59l124 -80l-57 -84q-47 -68 -82 -95.5t-80 -27.5q-55 0 -164 29l-153 41q-20 6 -35 -8l-72 -66z" />
<glyph unicode="&#xd2;" d="M121 586q0 406 218 664.5t619 258.5q303 0 449.5 -163.5t146.5 -434.5q0 -438 -220 -687t-613 -249q-309 0 -454.5 161t-145.5 450zM451 635q0 -70 6 -111q39 -297 311 -297q195 0 317.5 147.5t141.5 465.5q0 80 -4 114q-35 303 -301 303q-152 0 -262.5 -94t-159.5 -231 t-49 -297zM705 1753l133 203l389 -250l-92 -137z" />
<glyph unicode="&#xd3;" d="M121 586q0 406 218 664.5t619 258.5q303 0 449.5 -163.5t146.5 -434.5q0 -438 -220 -687t-613 -249q-309 0 -454.5 161t-145.5 450zM451 635q0 -70 6 -111q39 -297 311 -297q195 0 317.5 147.5t141.5 465.5q0 80 -4 114q-35 303 -301 303q-152 0 -262.5 -94t-159.5 -231 t-49 -297zM713 1716l434 240l92 -211l-461 -174z" />
<glyph unicode="&#xd4;" d="M121 586q0 406 218 664.5t619 258.5q303 0 449.5 -163.5t146.5 -434.5q0 -438 -220 -687t-613 -249q-309 0 -454.5 161t-145.5 450zM451 635q0 -70 6 -111q39 -297 311 -297q195 0 317.5 147.5t141.5 465.5q0 80 -4 114q-35 303 -301 303q-152 0 -262.5 -94t-159.5 -231 t-49 -297zM610 1686l281 229h213l215 -229l-125 -115l-219 166l-264 -166z" />
<glyph unicode="&#xd5;" d="M121 586q0 406 218 664.5t619 258.5q303 0 449.5 -163.5t146.5 -434.5q0 -438 -220 -687t-613 -249q-309 0 -454.5 161t-145.5 450zM451 635q0 -70 6 -111q39 -297 311 -297q195 0 317.5 147.5t141.5 465.5q0 80 -4 114q-35 303 -301 303q-152 0 -262.5 -94t-159.5 -231 t-49 -297zM582 1675l73 107q63 96 154 96q66 0 199 -35q106 -29 125 -28q20 0 30 12l56 59l124 -80l-57 -84q-47 -68 -82 -95.5t-80 -27.5q-55 0 -163 29l-154 41q-20 6 -35 -8l-72 -66z" />
<glyph unicode="&#xd6;" d="M121 586q0 406 218 664.5t619 258.5q303 0 449.5 -163.5t146.5 -434.5q0 -438 -220 -687t-613 -249q-309 0 -454.5 161t-145.5 450zM451 635q0 -70 6 -111q39 -297 311 -297q195 0 317.5 147.5t141.5 465.5q0 80 -4 114q-35 303 -301 303q-152 0 -262.5 -94t-159.5 -231 t-49 -297zM614 1726q0 72 48.5 115t119.5 43q61 0 94 -33.5t33 -91.5q0 -72 -47 -116t-119 -44q-59 0 -94 35t-35 92zM1040 1726q0 72 48.5 115t119.5 43q61 0 94 -33.5t33 -91.5q0 -72 -46 -116t-120 -44q-59 0 -94 35t-35 92z" />
<glyph unicode="&#xd7;" horiz-adv-x="1167" d="M229 457l224 194l-170 197l196 166l166 -195l225 197l140 -170l-222 -193l175 -198l-197 -166l-170 196l-227 -198z" />
<glyph unicode="&#xd8;" d="M121 586q0 406 218 664.5t619 258.5q84 0 166 -16l72 131h281l-127 -229q205 -154 204 -484q0 -438 -220 -687t-613 -249q-78 0 -164 15l-84 -152h-278l135 242q-209 150 -209 506zM451 635q0 -70 6 -111q12 -94 47 -162l487 889q-31 6 -69 6q-152 0 -262.5 -94 t-159.5 -231t-49 -297zM709 229q18 -2 59 -2q195 0 317.5 147.5t141.5 465.5q0 80 -4 114q-8 82 -37 144z" />
<glyph unicode="&#xd9;" horiz-adv-x="1585" d="M209 1331l20 152h635l-20 -152l-137 -16q-23 -2 -28 -8.5t-9 -30.5l-97 -686q-12 -80 -12 -144q0 -115 55.5 -167t180.5 -52q160 0 236.5 83t103.5 278l96 688q4 23 -1 31t-26 10l-125 14l21 152h594l-21 -152l-139 -16q-23 -2 -28 -9.5t-7 -29.5l-104 -746 q-41 -289 -195.5 -422t-429.5 -133q-264 0 -394 107.5t-130 329.5q0 51 10 127l100 737q6 39 -24 41zM711 1753l133 203l389 -250l-92 -137z" />
<glyph unicode="&#xda;" horiz-adv-x="1585" d="M209 1331l20 152h635l-20 -152l-137 -16q-23 -2 -28 -8.5t-9 -30.5l-97 -686q-12 -80 -12 -144q0 -115 55.5 -167t180.5 -52q160 0 236.5 83t103.5 278l96 688q4 23 -1 31t-26 10l-125 14l21 152h594l-21 -152l-139 -16q-23 -2 -28 -9.5t-7 -29.5l-104 -746 q-41 -289 -195.5 -422t-429.5 -133q-264 0 -394 107.5t-130 329.5q0 51 10 127l100 737q6 39 -24 41zM748 1716l434 240l92 -211l-461 -174z" />
<glyph unicode="&#xdb;" horiz-adv-x="1585" d="M209 1331l20 152h635l-20 -152l-137 -16q-23 -2 -28 -8.5t-9 -30.5l-97 -686q-12 -80 -12 -144q0 -115 55.5 -167t180.5 -52q160 0 236.5 83t103.5 278l96 688q4 23 -1 31t-26 10l-125 14l21 152h594l-21 -152l-139 -16q-23 -2 -28 -9.5t-7 -29.5l-104 -746 q-41 -289 -195.5 -422t-429.5 -133q-264 0 -394 107.5t-130 329.5q0 51 10 127l100 737q6 39 -24 41zM645 1685l281 230h213l215 -230l-125 -114l-219 166l-265 -166z" />
<glyph unicode="&#xdc;" horiz-adv-x="1585" d="M209 1331l20 152h635l-20 -152l-137 -16q-23 -2 -28 -8.5t-9 -30.5l-97 -686q-12 -80 -12 -144q0 -115 55.5 -167t180.5 -52q160 0 236.5 83t103.5 278l96 688q4 23 -1 31t-26 10l-125 14l21 152h594l-21 -152l-139 -16q-23 -2 -28 -9.5t-7 -29.5l-104 -746 q-41 -289 -195.5 -422t-429.5 -133q-264 0 -394 107.5t-130 329.5q0 51 10 127l100 737q6 39 -24 41zM649 1726q0 72 48 115t120 43q61 0 94 -33.5t33 -91.5q0 -72 -47 -116t-119 -44q-59 0 -94 35t-35 92zM1075 1726q0 72 48 115t120 43q61 0 94 -33.5t33 -91.5 q0 -72 -46 -116t-120 -44q-59 0 -94 35t-35 92z" />
<glyph unicode="&#xdd;" horiz-adv-x="1357" d="M147 1333l23 150h618l-22 -150l-160 -18l178 -492h13l311 492l-152 18l23 150h534l-22 -150l-86 -22q-43 -14 -57 -41l-459 -713l-49 -350q-4 -23 0 -30t26 -9l211 -16l-20 -152h-787l19 152l205 14q18 2 24 9t10 32l50 346l-299 723q-8 23 -46 35zM649 1716l434 240 l93 -211l-461 -174z" />
<glyph unicode="&#xde;" horiz-adv-x="1310" d="M37 0l20 152l129 14q23 4 30 11t9 30l150 1067q4 23 -2 31t-27 10l-123 14l19 154h639l-21 -154l-147 -16q-31 -4 -33 -33l-8 -57h200q231 0 340 -101.5t109 -279.5q0 -256 -165 -386t-460 -130h-147l-14 -117q-4 -25 0 -32t24 -9l287 -16l-23 -152h-786zM580 543h96 q66 0 116 10t100 37.5t77.5 86t27.5 146.5q0 176 -233 176h-121z" />
<glyph unicode="&#xdf;" horiz-adv-x="1404" d="M51 -434l223 1558q18 133 72.5 224.5t137.5 138.5t170 65.5t196 18.5q125 0 218 -30t143.5 -77t74 -96t23.5 -100q0 -145 -150 -287l-29 -28l-29 -27q-9 -8 -23.5 -24.5t-20.5 -27t-11.5 -23.5t-5.5 -26q0 -20 7.5 -38.5t27 -37t33.5 -29.5t47 -35l47 -34 q76 -57 119 -123.5t43 -167.5q0 -174 -119 -279.5t-323 -105.5q-123 0 -228.5 25t-136.5 47l39 283l209 -13l6 -118q4 -37 33 -43q27 -8 78 -9q74 0 115.5 39t41.5 101q0 59 -35.5 99t-105.5 83q-51 33 -73.5 49.5t-59.5 51t-52.5 75.5t-15.5 94q0 29 4 54.5t17 51.5l20 42 q8 16 29.5 40.5t30 35t33.5 36.5l32 33q96 100 96 182q0 57 -45 94.5t-131 37.5q-111 0 -172 -59.5t-82 -201.5l-215 -1519h-303z" />
<glyph unicode="&#xe0;" horiz-adv-x="1239" d="M88 385q0 125 27.5 241.5t85 224t162 172t241.5 64.5q164 0 281 -116l39 96h262q-41 -201 -51 -268l-82 -594q-4 -23 1 -30t25 -9l97 -14l-23 -152h-395l24 166l-10 2q-100 -98 -185 -145.5t-188 -47.5q-311 0 -311 410zM403 410q0 -178 117 -179q104 0 266 162l54 385 q-84 76 -181 76q-72 0 -124 -47t-79.5 -120t-40 -143.5t-12.5 -133.5zM512 1448l190 160l265 -357l-131 -102z" />
<glyph unicode="&#xe1;" horiz-adv-x="1239" d="M88 385q0 125 27.5 241.5t85 224t162 172t241.5 64.5q164 0 281 -116l39 96h262q-41 -201 -51 -268l-82 -594q-4 -23 1 -30t25 -9l97 -14l-23 -152h-395l24 166l-10 2q-100 -98 -185 -145.5t-188 -47.5q-311 0 -311 410zM403 410q0 -178 117 -179q104 0 266 162l54 385 q-84 76 -181 76q-72 0 -124 -47t-79.5 -120t-40 -143.5t-12.5 -133.5zM504 1268l336 334l157 -175l-381 -278z" />
<glyph unicode="&#xe2;" horiz-adv-x="1239" d="M88 385q0 125 27.5 241.5t85 224t162 172t241.5 64.5q164 0 281 -116l39 96h262q-41 -201 -51 -268l-82 -594q-4 -23 1 -30t25 -9l97 -14l-23 -152h-395l24 166l-10 2q-100 -98 -185 -145.5t-188 -47.5q-311 0 -311 410zM365 1257l286 265h213l215 -265l-133 -106 l-207 190l-264 -190zM403 410q0 -178 117 -179q104 0 266 162l54 385q-84 76 -181 76q-72 0 -124 -47t-79.5 -120t-40 -143.5t-12.5 -133.5z" />
<glyph unicode="&#xe3;" horiz-adv-x="1239" d="M88 385q0 125 27.5 241.5t85 224t162 172t241.5 64.5q164 0 281 -116l39 96h262q-41 -201 -51 -268l-82 -594q-4 -23 1 -30t25 -9l97 -14l-23 -152h-395l24 166l-10 2q-100 -98 -185 -145.5t-188 -47.5q-311 0 -311 410zM385 1270l76 104q72 102 149 103q45 0 127 -25 q154 -47 193 -53q14 0 28 12l66 66l123 -76l-60 -84q-45 -66 -78.5 -94.5t-76.5 -28.5q-51 0 -156 33q-25 6 -64 17l-68 20q-28 8 -42 10t-35 -14l-71 -66zM403 410q0 -178 117 -179q104 0 266 162l54 385q-84 76 -181 76q-72 0 -124 -47t-79.5 -120t-40 -143.5 t-12.5 -133.5z" />
<glyph unicode="&#xe4;" horiz-adv-x="1239" d="M88 385q0 125 27.5 241.5t85 224t162 172t241.5 64.5q164 0 281 -116l39 96h262q-41 -201 -51 -268l-82 -594q-4 -23 1 -30t25 -9l97 -14l-23 -152h-395l24 166l-10 2q-100 -98 -185 -145.5t-188 -47.5q-311 0 -311 410zM381 1348q0 72 48 114.5t120 42.5q61 0 94 -33.5 t33 -91.5q0 -72 -47 -115.5t-119 -43.5q-59 0 -94 35t-35 92zM403 410q0 -178 117 -179q104 0 266 162l54 385q-84 76 -181 76q-72 0 -124 -47t-79.5 -120t-40 -143.5t-12.5 -133.5zM807 1348q0 72 48 114.5t120 42.5q61 0 94 -33.5t33 -91.5q0 -72 -46 -115.5t-120 -43.5 q-59 0 -94 35t-35 92z" />
<glyph unicode="&#xe5;" horiz-adv-x="1239" d="M88 385q0 125 27.5 241.5t85 224t162 172t241.5 64.5q164 0 281 -116l39 96h262q-41 -201 -51 -268l-82 -594q-4 -23 1 -30t25 -9l97 -14l-23 -152h-395l24 166l-10 2q-100 -98 -185 -145.5t-188 -47.5q-311 0 -311 410zM403 410q0 -178 117 -179q104 0 266 162l54 385 q-84 76 -181 76q-72 0 -124 -47t-79.5 -120t-40 -143.5t-12.5 -133.5zM549 1343q0 102 68.5 165t181.5 63q82 0 137 -44t55 -128q0 -102 -66.5 -168t-176.5 -66q-88 0 -143.5 47t-55.5 131zM688 1348q0 -61 74 -62q92 0 92 103q0 61 -72 61q-94 0 -94 -102z" />
<glyph unicode="&#xe6;" horiz-adv-x="1712" d="M88 385q0 125 27.5 241.5t85 224t162 172t241.5 64.5q203 0 357 -155q176 156 417 155q150 0 234 -70.5t84 -197.5q0 -354 -629 -413q8 -96 51 -148.5t150 -52.5q125 0 299 74l47 -201q-221 -102 -424 -103q-287 0 -387 201q-117 -106 -210 -153.5t-194 -47.5 q-311 0 -311 410zM403 410q0 -178 117 -179q92 0 234 129q-2 31 -2 91q6 188 84 327q-90 76 -177 76q-72 0 -124 -47t-79.5 -120t-40 -143.5t-12.5 -133.5zM1079 604q47 6 93.5 16.5t107.5 31t99 55t38 77.5q0 82 -98 82q-86 0 -153 -71.5t-87 -190.5z" />
<glyph unicode="&#xe7;" horiz-adv-x="1028" d="M84 422q0 326 175 495.5t450 169.5q221 0 342 -86l-45 -321l-209 10l-6 139q0 23 -15 29q-35 14 -100 14q-115 0 -195 -102t-80 -315q0 -250 203 -250q115 0 270 61l52 -190q-141 -80 -334 -96l-19 -72q143 -41 144 -178q0 -119 -90 -186.5t-215 -67.5q-94 0 -127 16 l32 141q25 -8 72 -8q55 0 94 23.5t39 75.5q0 78 -125 81l47 177q-182 20 -271 137t-89 303z" />
<glyph unicode="&#xe8;" horiz-adv-x="1036" d="M84 412q0 313 174 494t434 181q166 0 251 -70.5t85 -199.5q0 -104 -51 -182t-145.5 -123t-197 -68.5t-235.5 -37.5q12 -201 203 -201q121 0 297 74l45 -201q-221 -102 -424 -103q-227 0 -331.5 118t-104.5 319zM412 604q338 47 338 184q0 78 -99 78q-86 0 -151 -70.5 t-88 -191.5zM469 1448l190 160l265 -357l-131 -102z" />
<glyph unicode="&#xe9;" horiz-adv-x="1036" d="M84 412q0 313 174 494t434 181q166 0 251 -70.5t85 -199.5q0 -104 -51 -182t-145.5 -123t-197 -68.5t-235.5 -37.5q12 -201 203 -201q121 0 297 74l45 -201q-221 -102 -424 -103q-227 0 -331.5 118t-104.5 319zM412 604q338 47 338 184q0 78 -99 78q-86 0 -151 -70.5 t-88 -191.5zM461 1268l336 334l157 -175l-381 -278z" />
<glyph unicode="&#xea;" horiz-adv-x="1036" d="M84 412q0 313 174 494t434 181q166 0 251 -70.5t85 -199.5q0 -104 -51 -182t-145.5 -123t-197 -68.5t-235.5 -37.5q12 -201 203 -201q121 0 297 74l45 -201q-221 -102 -424 -103q-227 0 -331.5 118t-104.5 319zM322 1257l286 265h213l215 -265l-133 -106l-207 190 l-264 -190zM412 604q338 47 338 184q0 78 -99 78q-86 0 -151 -70.5t-88 -191.5z" />
<glyph unicode="&#xeb;" horiz-adv-x="1036" d="M84 412q0 313 174 494t434 181q166 0 251 -70.5t85 -199.5q0 -104 -51 -182t-145.5 -123t-197 -68.5t-235.5 -37.5q12 -201 203 -201q121 0 297 74l45 -201q-221 -102 -424 -103q-227 0 -331.5 118t-104.5 319zM338 1348q0 72 48 114.5t120 42.5q61 0 94 -33.5t33 -91.5 q0 -72 -47 -115.5t-119 -43.5q-59 0 -94 35t-35 92zM412 604q338 47 338 184q0 78 -99 78q-86 0 -151 -70.5t-88 -191.5zM764 1348q0 72 48 114.5t120 42.5q61 0 94 -33.5t33 -91.5q0 -72 -46 -115.5t-120 -43.5q-59 0 -94 35t-35 92z" />
<glyph unicode="&#xec;" horiz-adv-x="651" d="M127 10l49 277l76 547q6 35 -21 43l-100 34l21 156h436l-121 -860q-4 -25 1 -32t28 -9l98 -14l-21 -152h-442zM168 1444l190 160l265 -357l-131 -102z" />
<glyph unicode="&#xed;" horiz-adv-x="651" d="M127 10l49 277l76 547q6 35 -21 43l-100 34l21 156h436l-121 -860q-4 -25 1 -32t28 -9l98 -14l-21 -152h-442zM160 1262l336 333l157 -174l-381 -278z" />
<glyph unicode="&#xee;" horiz-adv-x="651" d="M55 1266l267 264h213l194 -264l-133 -107l-186 191l-244 -191zM127 10l49 277l76 547q6 35 -21 43l-100 34l21 156h436l-121 -860q-4 -25 1 -32t28 -9l98 -14l-21 -152h-442z" />
<glyph unicode="&#xef;" horiz-adv-x="651" d="M63 1321q0 72 48.5 115t119.5 43q61 0 94 -34t33 -91q0 -72 -47 -116t-118 -44q-59 0 -94.5 35t-35.5 92zM127 10l49 277l76 547q6 35 -21 43l-100 34l21 156h436l-121 -860q-4 -25 1 -32t28 -9l98 -14l-21 -152h-442zM449 1321q0 72 48 115t119 43q61 0 94 -34t33 -91 q0 -72 -46 -116t-119 -44q-59 0 -94 35t-35 92z" />
<glyph unicode="&#xf0;" horiz-adv-x="1202" d="M82 422q0 258 145.5 436t403.5 178q137 0 272 -80q-27 170 -128 268.5t-316 155.5l114 217q180 -35 322 -131l229 138l129 -226l-180 -102q121 -203 121 -467q0 -168 -33 -309.5t-104.5 -263t-203.5 -191.5t-312 -70q-225 0 -342 120t-117 327zM408 412q0 -221 170 -222 q270 0 296 560q-74 70 -198 69q-268 1 -268 -407z" />
<glyph unicode="&#xf1;" horiz-adv-x="1269" d="M18 0l21 154l90 12q20 4 27.5 11t9.5 30l86 624q6 35 -19 43l-100 37l23 156h405l-22 -168l6 -2q74 63 119 96t117.5 63.5t148.5 30.5q233 0 241 -243q0 -61 -8 -113l-73 -524q-4 -25 0 -32t24 -9l103 -14l-21 -152h-442l-4 6l45 250l59 426q6 33 6 60q0 24 -5 42 q-11 39 -54 39q-98 0 -266 -147l-64 -469q-4 -25 0 -32t27 -9l102 -14l-20 -152h-562zM395 1270l76 104q72 102 150 103q43 0 127 -25q154 -47 192 -53q14 0 29 12l65 66l123 -76l-59 -84q-45 -66 -79 -94.5t-77 -28.5q-51 0 -156 33q-25 6 -64 17l-68 20q-28 8 -42 10 t-34 -14l-72 -66z" />
<glyph unicode="&#xf2;" horiz-adv-x="1183" d="M84 416q0 303 164 487t457 184q242 0 349 -118.5t107 -315.5q0 -309 -156.5 -493.5t-453.5 -184.5q-233 0 -350 118t-117 323zM399 416q0 -225 176 -226q117 0 191 111t74 348q0 217 -170 217q-117 0 -194 -107t-77 -343zM500 1448l190 160l264 -357l-131 -102z" />
<glyph unicode="&#xf3;" horiz-adv-x="1183" d="M84 416q0 303 164 487t457 184q242 0 349 -118.5t107 -315.5q0 -309 -156.5 -493.5t-453.5 -184.5q-233 0 -350 118t-117 323zM399 416q0 -225 176 -226q117 0 191 111t74 348q0 217 -170 217q-117 0 -194 -107t-77 -343zM508 1268l336 334l157 -175l-380 -278z" />
<glyph unicode="&#xf4;" horiz-adv-x="1183" d="M84 416q0 303 164 487t457 184q242 0 349 -118.5t107 -315.5q0 -309 -156.5 -493.5t-453.5 -184.5q-233 0 -350 118t-117 323zM352 1257l287 265h213l215 -265l-133 -106l-207 190l-264 -190zM399 416q0 -225 176 -226q117 0 191 111t74 348q0 217 -170 217 q-117 0 -194 -107t-77 -343z" />
<glyph unicode="&#xf5;" horiz-adv-x="1183" d="M84 416q0 303 164 487t457 184q242 0 349 -118.5t107 -315.5q0 -309 -156.5 -493.5t-453.5 -184.5q-233 0 -350 118t-117 323zM340 1270l76 104q72 102 149 103q45 0 127 -25q154 -47 193 -53q14 0 28 12l66 66l123 -76l-60 -84q-45 -66 -78.5 -94.5t-76.5 -28.5 q-51 0 -156 33q-25 6 -64 17l-68 20q-28 8 -42 10t-35 -14l-71 -66zM399 416q0 -225 176 -226q117 0 191 111t74 348q0 217 -170 217q-117 0 -194 -107t-77 -343z" />
<glyph unicode="&#xf6;" horiz-adv-x="1183" d="M84 416q0 303 164 487t457 184q242 0 349 -118.5t107 -315.5q0 -309 -156.5 -493.5t-453.5 -184.5q-233 0 -350 118t-117 323zM369 1348q0 72 48 114.5t120 42.5q61 0 94 -33.5t33 -91.5q0 -72 -47.5 -115.5t-118.5 -43.5q-59 0 -94 35t-35 92zM399 416q0 -225 176 -226 q117 0 191 111t74 348q0 217 -170 217q-117 0 -194 -107t-77 -343zM795 1348q0 72 48 114.5t120 42.5q61 0 94 -33.5t33 -91.5q0 -72 -46.5 -115.5t-119.5 -43.5q-59 0 -94 35t-35 92z" />
<glyph unicode="&#xf7;" horiz-adv-x="1167" d="M223 539l35 237h793l-35 -237h-793zM422 293q0 78 48 127t136 49q70 0 106 -35t36 -94q0 -78 -47.5 -124t-135.5 -46q-143 0 -143 123zM516 971q0 78 48 126t136 48q70 0 106 -34t36 -93q0 -80 -46 -125t-137 -45q-143 0 -143 123z" />
<glyph unicode="&#xf8;" horiz-adv-x="1183" d="M84 416q0 303 164 487t457 184q39 0 108 -8l80 138h250l-127 -218q145 -111 145 -346q0 -309 -156.5 -493.5t-453.5 -184.5q-59 0 -121 11l-88 -154h-252l137 238q-143 113 -143 346zM399 416q0 -55 9 -90l309 536q-29 4 -47 4q-117 0 -194 -107t-77 -343zM526 195 q29 -4 49 -5q117 0 191 111t74 348q0 49 -9 80z" />
<glyph unicode="&#xf9;" horiz-adv-x="1275" d="M137 901l25 166h399l14 -14l-90 -652q-8 -70 -8 -88q0 -39 14.5 -56t51.5 -17q94 0 258 145l63 463q4 25 0 31t-26 10l-66 10l27 168h387l14 -16l-121 -842q-6 -39 23 -43l102 -14l-20 -152h-406l21 164l-6 2q-6 -4 -34 -28.5t-39 -33t-40 -31t-46 -31.5l-47 -25 q-30 -15 -54.5 -22t-57.5 -13.5t-63 -6.5q-129 0 -186.5 63.5t-57.5 192.5q0 61 8 117l68 496q4 27 0 34t-27 9zM481 1448l191 160l264 -357l-131 -102z" />
<glyph unicode="&#xfa;" horiz-adv-x="1275" d="M137 901l25 166h399l14 -14l-90 -652q-8 -70 -8 -88q0 -39 14.5 -56t51.5 -17q94 0 258 145l63 463q4 25 0 31t-26 10l-66 10l27 168h387l14 -16l-121 -842q-6 -39 23 -43l102 -14l-20 -152h-406l21 164l-6 2q-6 -4 -34 -28.5t-39 -33t-40 -31t-46 -31.5l-47 -25 q-30 -15 -54.5 -22t-57.5 -13.5t-63 -6.5q-129 0 -186.5 63.5t-57.5 192.5q0 61 8 117l68 496q4 27 0 34t-27 9zM516 1268l336 334l158 -175l-381 -278z" />
<glyph unicode="&#xfb;" horiz-adv-x="1275" d="M137 901l25 166h399l14 -14l-90 -652q-8 -70 -8 -88q0 -39 14.5 -56t51.5 -17q94 0 258 145l63 463q4 25 0 31t-26 10l-66 10l27 168h387l14 -16l-121 -842q-6 -39 23 -43l102 -14l-20 -152h-406l21 164l-6 2q-6 -4 -34 -28.5t-39 -33t-40 -31t-46 -31.5l-47 -25 q-30 -15 -54.5 -22t-57.5 -13.5t-63 -6.5q-129 0 -186.5 63.5t-57.5 192.5q0 61 8 117l68 496q4 27 0 34t-27 9zM375 1257l287 265h212l216 -265l-134 -106l-206 190l-265 -190z" />
<glyph unicode="&#xfc;" horiz-adv-x="1275" d="M137 901l25 166h399l14 -14l-90 -652q-8 -70 -8 -88q0 -39 14.5 -56t51.5 -17q94 0 258 145l63 463q4 25 0 31t-26 10l-66 10l27 168h387l14 -16l-121 -842q-6 -39 23 -43l102 -14l-20 -152h-406l21 164l-6 2q-6 -4 -34 -28.5t-39 -33t-40 -31t-46 -31.5l-47 -25 q-30 -15 -54.5 -22t-57.5 -13.5t-63 -6.5q-129 0 -186.5 63.5t-57.5 192.5q0 61 8 117l68 496q4 27 0 34t-27 9zM383 1348q0 72 48 114.5t120 42.5q61 0 94 -33.5t33 -91.5q0 -72 -47 -115.5t-119 -43.5q-59 0 -94 35t-35 92zM809 1348q0 72 48 114.5t120 42.5 q61 0 94 -33.5t33 -91.5q0 -72 -46 -115.5t-120 -43.5q-59 0 -94 35t-35 92z" />
<glyph unicode="&#xfd;" horiz-adv-x="1163" d="M-113 -354l105 174q98 -59 186 -60q109 0 193 144l57 102l-229 856q-8 27 -37 35l-80 18l24 152h361l20 -23l56 -264l92 -428h10l260 545l-125 18l23 152h379l28 -63l-594 -1170q-82 -154 -175 -222.5t-251 -68.5q-100 0 -183 34t-120 69zM469 1268l336 334l158 -175 l-381 -278z" />
<glyph unicode="&#xfe;" horiz-adv-x="1228" d="M45 -426l61 352l197 1387q6 31 -20 43l-99 35l21 155h426l-92 -641l6 -4q197 186 364 186q295 0 295 -409q0 -324 -130 -513.5t-365 -189.5q-166 0 -269 103h-10l-45 -305q-2 -18 4 -24.5t25 -8.5l207 -21l-23 -153h-549zM461 293q94 -80 186 -80q119 0 177.5 127 t58.5 287q0 201 -107 200q-88 0 -260 -153z" />
<glyph unicode="&#xff;" horiz-adv-x="1163" d="M-113 -354l105 174q98 -59 186 -60q109 0 193 144l57 102l-229 856q-8 27 -37 35l-80 18l24 152h361l20 -23l56 -264l92 -428h10l260 545l-125 18l23 152h379l28 -63l-594 -1170q-82 -154 -175 -222.5t-251 -68.5q-100 0 -183 34t-120 69zM342 1348q0 72 48 114.5 t120 42.5q61 0 94 -33.5t33 -91.5q0 -72 -47 -115.5t-119 -43.5q-59 0 -94 35t-35 92zM768 1348q0 72 48 114.5t120 42.5q61 0 94 -33.5t33 -91.5q0 -72 -46 -115.5t-120 -43.5q-59 0 -94 35t-35 92z" />
<glyph unicode="&#x152;" horiz-adv-x="2052" d="M115 612q0 393 203.5 645t562.5 252q119 0 211 -26h1001l-57 -414l-217 10l-7 156q0 27 -32 27h-441q96 -147 97 -404h442l-31 -227h-424q-41 -254 -182 -412h440q29 0 37 23l56 180h217l-58 -422h-1034q-96 -25 -205 -25q-287 0 -433 174t-146 463zM436 625 q0 -397 301 -398q193 0 298.5 155t105.5 478q0 397 -291 397q-186 0 -300 -158.5t-114 -473.5z" />
<glyph unicode="&#x153;" horiz-adv-x="1775" d="M82 428q0 295 154.5 477t431.5 182q262 0 366 -182q158 182 393 182q162 0 245 -70.5t83 -199.5q0 -104 -57.5 -184t-154.5 -125t-199.5 -68.5t-219.5 -33.5q6 -96 51.5 -148.5t151.5 -52.5q119 0 297 74l45 -201q-174 -82 -334 -96q-33 -4 -70 -4q-25 0 -51 2 q-104 8 -178.5 55t-109.5 115q-145 -174 -406 -175q-219 0 -328.5 121t-109.5 332zM397 430q0 -240 174 -240q125 0 197 110t72 337q0 229 -172 229q-271 0 -271 -436zM1137 604q338 47 338 180q0 82 -99 82q-86 0 -151 -70.5t-88 -191.5z" />
<glyph unicode="&#x178;" horiz-adv-x="1357" d="M147 1333l23 150h618l-22 -150l-160 -18l178 -492h13l311 492l-152 18l23 150h534l-22 -150l-86 -22q-43 -14 -57 -41l-459 -713l-49 -350q-4 -23 0 -30t26 -9l211 -16l-20 -152h-787l19 152l205 14q18 2 24 9t10 32l50 346l-299 723q-8 23 -46 35zM524 1726 q0 72 48.5 115t119.5 43q61 0 94 -33.5t33 -91.5q0 -72 -47 -116t-119 -44q-59 0 -94 35t-35 92zM950 1726q0 72 48.5 115t119.5 43q61 0 94 -33.5t33 -91.5q0 -72 -46 -116t-120 -44q-59 0 -94 35t-35 92z" />
<glyph unicode="&#x2c6;" horiz-adv-x="1024" d="M332 1257l286 265h213l216 -265l-134 -106l-206 190l-265 -190z" />
<glyph unicode="&#x2dc;" horiz-adv-x="1024" d="M319 1270l76 104q72 102 150 103q45 0 127 -25q154 -47 192 -53q14 0 29 12l65 66l123 -76l-59 -84q-45 -66 -79 -94.5t-77 -28.5q-51 0 -155 33q-25 6 -65 17l-67 20q-28 8 -42.5 10t-34.5 -14l-72 -66z" />
<glyph unicode="&#x2000;" horiz-adv-x="978" />
<glyph unicode="&#x2001;" horiz-adv-x="1956" />
<glyph unicode="&#x2002;" horiz-adv-x="978" />
<glyph unicode="&#x2003;" horiz-adv-x="1956" />
<glyph unicode="&#x2004;" horiz-adv-x="652" />
<glyph unicode="&#x2005;" horiz-adv-x="489" />
<glyph unicode="&#x2006;" horiz-adv-x="326" />
<glyph unicode="&#x2007;" horiz-adv-x="326" />
<glyph unicode="&#x2008;" horiz-adv-x="244" />
<glyph unicode="&#x2009;" horiz-adv-x="391" />
<glyph unicode="&#x200a;" horiz-adv-x="108" />
<glyph unicode="&#x2010;" horiz-adv-x="636" d="M72 465l37 260h555l-37 -260h-555z" />
<glyph unicode="&#x2011;" horiz-adv-x="636" d="M72 465l37 260h555l-37 -260h-555z" />
<glyph unicode="&#x2012;" horiz-adv-x="636" d="M72 465l37 260h555l-37 -260h-555z" />
<glyph unicode="&#x2013;" horiz-adv-x="1021" d="M23 465l30 219h1022l-31 -219h-1021z" />
<glyph unicode="&#x2014;" horiz-adv-x="2048" d="M23 465l30 219h2048l-30 -219h-2048z" />
<glyph unicode="&#x2018;" horiz-adv-x="442" d="M221 1237q0 51 60 147l127 205l122 -43l-73 -200q-6 -16 10 -23l72 -29l-68 -194q-119 2 -184.5 30.5t-65.5 106.5z" />
<glyph unicode="&#x2019;" horiz-adv-x="446" d="M227 1393l68 192q119 -2 183.5 -27.5t64.5 -101.5q0 -57 -60 -153l-127 -205l-123 43l74 198q6 18 -10 25z" />
<glyph unicode="&#x201a;" horiz-adv-x="438" d="M45 16l70 195q119 -2 183 -27.5t64 -103.5q0 -55 -59 -152l-127 -207l-123 43l74 201q6 16 -10 23z" />
<glyph unicode="&#x201c;" horiz-adv-x="806" d="M221 1237q0 51 60 147l127 205l122 -43l-73 -200q-6 -16 10 -23l72 -29l-68 -194q-119 2 -184.5 30.5t-65.5 106.5zM586 1237q0 51 59 147l127 205l123 -43l-74 -200q-6 -16 10 -23l72 -29l-67 -194q-119 2 -184.5 30.5t-65.5 106.5z" />
<glyph unicode="&#x201d;" horiz-adv-x="811" d="M227 1393l68 192q119 -2 183.5 -27.5t64.5 -101.5q0 -57 -60 -153l-127 -205l-123 43l74 198q6 18 -10 25zM592 1393l67 192q119 -2 183.5 -27.5t64.5 -101.5q0 -57 -59 -153l-127 -205l-123 43l74 198q6 18 -10 25z" />
<glyph unicode="&#x201e;" horiz-adv-x="802" d="M45 16l70 195q119 -2 183 -27.5t64 -103.5q0 -55 -59 -152l-127 -207l-123 43l74 201q6 16 -10 23zM410 16l69 195q119 -2 183.5 -27.5t64.5 -103.5q0 -55 -59 -152l-127 -207l-123 43l74 201q6 16 -11 23z" />
<glyph unicode="&#x2022;" horiz-adv-x="843" d="M150 571q0 299 307 299q152 0 231.5 -75.5t79.5 -223t-80 -223.5t-231 -76q-307 0 -307 299z" />
<glyph unicode="&#x2026;" horiz-adv-x="1458" d="M88 113q0 182 201 182q154 0 153 -139q0 -180 -198 -181q-156 1 -156 138zM535 113q0 182 200 182q154 0 154 -139q0 -180 -199 -181q-155 1 -155 138zM981 113q0 182 201 182q154 0 153 -139q0 -180 -198 -181q-156 1 -156 138z" />
<glyph unicode="&#x202f;" horiz-adv-x="391" />
<glyph unicode="&#x2039;" horiz-adv-x="569" d="M100 526l226 310h252l-205 -287q-16 -18 -8 -39l114 -299h-248z" />
<glyph unicode="&#x203a;" horiz-adv-x="569" d="M68 211l200 299q12 20 4 39l-122 287h249l138 -312l-220 -313h-249z" />
<glyph unicode="&#x205f;" horiz-adv-x="489" />
<glyph unicode="&#x20ac;" horiz-adv-x="1142" d="M53 543l76 239h90q59 281 234.5 420t400.5 139q109 0 212 -26.5t151 -61.5l-50 -348l-206 10l-9 160q0 27 -18 33q-43 14 -105 14q-96 0 -175 -82t-113 -258h323l-71 -239h-275v-27q0 -315 195 -315q59 0 100 14q20 8 27 33l51 162l209 10l-49 -357q-53 -33 -173 -60.5 t-231 -27.5q-225 0 -338.5 138.5t-113.5 400.5v29h-142z" />
<glyph unicode="&#x2122;" horiz-adv-x="1734" d="M221 1266v217h660v-217h-95l-12 104h-145v-553l116 -10v-94h-383v94l109 10v553h-143l-15 -104h-92zM944 713v92l74 10v559l-74 8v101h225l217 -447l224 447h217v-101l-78 -8v-559l82 -10v-92h-307v92l84 10v387l-164 -323h-123l-160 325v-389l90 -10v-92h-307z" />
<glyph unicode="&#x25fc;" horiz-adv-x="1065" d="M0 0v1065h1065v-1065h-1065z" />
<glyph unicode="&#xfb01;" horiz-adv-x="1314" d="M82 -434l182 1276q4 20 -14 20h-133l26 205h152l18 131q53 373 447 373q133 0 256 -39t192 -90l-112 -191q-158 94 -297 95q-162 0 -183 -150l-16 -109q-2 -20 14 -20h637l-121 -860q-4 -25 0.5 -32t26.5 -9l98 -14l-18 -152h-442l-7 10l50 277l75 534q6 39 -20 41h-324 l-182 -1296h-305z" />
<glyph unicode="&#xfb02;" horiz-adv-x="1316" d="M82 -434l182 1276q4 20 -14 20h-133l26 205h152l18 131q53 373 432 373q182 0 340 -90l156 65h78l-189 -1339q-4 -25 0.5 -32t26.5 -9l98 -14l-18 -152h-442l-7 10l54 301l135 973q-115 61 -201 62q-137 0 -160 -138l-16 -121q-2 -20 14 -20h244l-29 -205h-260 l-182 -1296h-305z" />
<glyph unicode="&#xfb03;" horiz-adv-x="1966" d="M82 -434l182 1276q4 20 -14 20h-133l26 205h152l14 98q55 373 406 373q197 0 344 -102q113 135 352 135q133 0 256 -39t193 -90l-113 -191q-158 94 -297 95q-162 0 -182 -150l-17 -109q-2 -20 15 -20h637l-121 -860q-4 -25 0 -32t26 -9l99 -14l-19 -152h-442l-6 10 l49 277l76 534q6 41 -27 41h-317l-183 -1296h-305l182 1276q4 20 -14 20h-332l-182 -1296h-305zM600 1087q-2 -20 14 -20h332l19 131q4 29 8 43q-115 72 -217 72q-121 0 -142 -137z" />
<glyph unicode="&#xfb04;" horiz-adv-x="1972" d="M82 -434l182 1276q4 20 -14 20h-133l26 205h152l14 98q55 373 406 373q197 0 344 -102q109 135 342 135q182 0 340 -90l155 65h78l-188 -1339q-4 -25 0 -32t26 -9l99 -14l-19 -152h-442l-6 10l53 301l135 973q-115 61 -200 62q-141 0 -160 -138l-17 -121q-2 -20 15 -20 h243l-28 -205h-260l-183 -1296h-305l183 1276q4 18 -11 20h-340l-182 -1296h-305zM600 1087q-2 -20 14 -20h336l25 172q-111 74 -219 74q-121 0 -142 -137z" />
</font>
</defs>
</svg>
